<?xml version='1.0' encoding='utf-8'?>
<svg xmlns="http://www.w3.org/2000/svg" enable-background="new 0 0 4921.6138 5000" version="1.1" viewBox="0 0 4921.6 5e3"> <path d="m2053.1 693.42-76.663 19.456c-2.8982 0.835-20.888 7.3036-22.752 6.6977-3.0721-0.9933 2.8845 2.7759-80.36-62.978-251.59-185.05-151.89-117.37-439.26-294.83-294.36-169.1-573.18-288.86-953.55-361.76 238.31 694.05 70.224 943.97 372.47 1585.1-24.626 96.694-56.305 190.7-102 279.66-98.059 190.92-311.21 439.97-609.47 628.78 173.8-38.88 205.25-55.008 374.4-118.05-6.5804 13.68-18.494 27.406-27.473 39.875-55.317 76.826-123.67 141.85-196.41 201.88-117.99 97.404-153.4 113.02-240.96 163.57-16.894 8.76-34.509 15.992-51.071 25.389 25.42-1.2153 49.641-7.2244 74.712-10.742 169.38-23.736 201.05-39.436 390.3-96.017-91.005 172.1-138.73 365.58-127.17 560.57 1.7073 28.781 3.3733 80.548 12.908 108.22 51.881-110.27 123.58-210.44 227.33-277.86-6.2747 52.949-11.704 105.26-10.227 158.68 5.8826 212.49 101.87 411.15 231.11 575.42 42.518 54.039 91.02 102.87 138.46 152.53 11.602 12.137 27.33 33.264 41.331 41.866-63.242-101.05-92.182-224.6-112.84-340.67 35.395 68.178 91.364 217.94 330.93 409.35 76.836 61.388 196.64 145.11 281.74 255.52l68.412 95.162c-47.753-164.56-83.611-220.71-131.99-310.23 414.65 300.91 809.14 338.97 1044.1 872 0.5742-1.2769 1.1499-2.5522 1.7268-3.8267 0.5769 1.2744 1.1526 2.5498 1.7268 3.8267 234.67-532.46 630.39-571.8 1044.1-872-48.792 90.289-84.41 146.28-131.98 310.23l68.412-95.162c85.317-110.68 205.72-194.79 281.74-255.52 236.71-189.12 293.28-336.83 330.93-409.35-20.658 116.07-49.598 239.62-112.84 340.67 14.001-8.6023 29.729-29.729 41.331-41.866 47.443-49.658 95.946-98.492 138.46-152.53 129.24-164.27 225.23-362.93 231.11-575.42 1.4771-53.422-3.9521-105.73-10.227-158.68 103.75 67.429 175.45 167.59 227.33 277.86 9.5381-27.683 11.203-79.484 12.908-108.22 11.568-194.99-36.16-388.47-127.17-560.57 194.22 58.07 226.55 73.07 390.3 96.017 25.082 3.5188 49.292 9.5261 74.712 10.742-16.562-9.397-34.177-16.629-51.071-25.389-93.533-54-124.91-67.773-240.96-163.57-72.741-60.039-141.09-125.06-196.41-201.88-8.9795-12.468-20.893-26.194-27.473-39.875 169.05 63.001 200.61 79.17 374.4 118.05-298.18-188.75-511.52-438.06-609.47-628.78-45.691-88.953-77.37-182.96-102-279.66 303.66-644.14 133.08-887.92 372.47-1585.1-370.07 70.931-651.1 188.01-953.55 361.76-287.48 177.53-187.79 109.86-439.26 294.83-83.829 66.215-77.464 62.041-80.36 62.978-1.864 0.6059-19.853-5.8627-22.752-6.6977l-76.663-19.456c-262.1-57.399-553.06-57.457-815.42 1e-4zm407.71 210.26-96.48-142.2c115.78-0.1898 71.514-0.199 192.96 0l-96.481 142.2zm0 292.62c-0.3232 0.6082-0.6458 1.2166-0.9678 1.8253-64.229-117.38-220.3-329.65-299.53-435.91 49.596-5.9045 37.657-4.6649 53.652-5.8369 83.993 87.6 168.04 224.65 246.33 342.54l0.5098-0.7073 0.5098 0.7073c79.643-119.92 163.04-255.67 246.33-342.54 16.04 1.1753 5.24 0.0734 53.652 5.8369-79.707 106.9-235.4 318.71-299.53 435.91-0.3221-0.6088-0.6446-1.2172-0.9678-1.8253zm0 286.8-2.3633 3.5703c-500.78-771.35-420.13-649.76-477.5-728.94 149.81 88.046 390.27 496.29 479.87 638.88 89.548-142.51 330.04-550.83 479.87-638.88-56.832 78.435 24.549-44.37-477.5 728.94l-2.3633-3.5703zm-1611.1 422.77c8.4239-16.741 16.65-43.944 28.726-57.385 35.24 42.947 45.67 53.71 46.333 60.288l-112.36 64.551 37.298-67.454zm3259.5 67.454-112.36-64.551c0.6624-6.5792 11.229-17.507 46.333-60.288 12.076 13.441 20.302 40.644 28.726 57.385l37.298 67.454zm-1648.4 69.234c-13.477 26.704-23.96 55.369-35.887 82.813-32.708 75.272-64.674 150.57-83.911 230.67-34.413 143.3-46.054 362.26-138.18 597.97-13.945 35.688-29.301 77.152-50.178 109.23 15.376-69.747 72.332-232.13-20.556-572.15-26.026-13.049-51.635-27.814-79.581-36.421-115.16-35.459-238.15-19.899-352.49-63.202-140.9-53.361-245.5-178.27-306.23-312.21 15.56-3.606 15.677 5.8726 22.201 17.627 50.025 90.109 108.91 168.81 195.09 227.45 20.852 14.185 42.162 28.588 65.183 39.03 76.138 34.532 156.59 41.173 238.88 44.963 115.75 5.3293 111.76 12.864 164.08 45.91l50.173 28.985c-24.702-75.133-64.821-221.03-188.32-316.18-143.44-110.53-384.1-113.48-573.29-104.25-321.58 15.682-372.85 49.737-853.87 228.84l163.55-147.39c90.575-94.545 73.58-80.426 85.581-90.068 15.829-12.72 151.15-93.836 228.36-129.25-20.516-47.041-62.662-87.791-91.616-130.46l18.768-52.083 120.27 162.56 78.583-51.589c-34.44-40.588-63.96-88.566-92.544-133.41-182.85-286.88-297.17-637.3-307.1-978.02-4.5482-156.19 17.969-310.82 12.575-467.1 176.12 134.92 316.36 323.05 425.54 514.17 47.291 86.049 52.524 93.289 56.096 112.19-93.918-64.256-202.45-106.25-314.92-124.13 146.58 62.412 273.97 155.45 362.15 290.15 14.075 21.494 33.497 49.027 41.723 73.164-26.719-25.797-54.084-52.052-84.786-73.128-85.347-58.592-201.84-89.365-287.73-86.493 167.52 52.254 314.44 193.24 375.76 325.2l-0.4636 1.2733c-56.137-57.706-128.77-100.4-207.69-117.95-30.101-6.6924-60.634-8.4343-91.296-10.629 179.06 81.944 277.99 277.21 226.63 499.08-23.704 89.097-20.55 68.96-21.814 79.087 10.93-6.2605-16.831 20.172 351.44-351.26 97.809-108.98 138.52-203.9 103.69-352-47.932-203.78-191.24-381.71-336.95-526.34-259.31-257.38-480.53-358.49-525.38-387.09 19.222 4.5066 37.354 14.737 55.052 23.37 222.93 116.25 456.09 248.55 652.24 483.3 79.043 94.6 145.13 191.23 195.56 328.91 59.732 163.06 56.296 288.81-60.425 446.82-55.096 74.591-263.18 282.85-439.3 409.96-498.12 328.28-304.25 192.14-487.45 326.58 216.75-91.906 130.79-56.012 378.52-157.73 133.88-56.5 338.12-160.53 587.76-163.08 83.437-0.858 135.73 4.0513 212.66 38.199 153.26 68.035 263.12 223.61 321.09 376.37 26.836 70.73 39.681 139.68 49.674 214.05 6.9875-68.178-1.3296-138.51-10.696-206.1-21.208-153.01-55.037-325-155.34-447.99-116.76-143.16-359.76-170.18-537.36-120.91-72.209 20.014-67.991 25.646-84.761 27.014 13.378-14.778 102.62-50.524 122.81-57.96 106.16-39.106 239.54-53.993 349.95-24.147 37.878 10.237 72.991 26.734 108.43 43.18 101.41-262.44 57.55-560.15-152.67-820.83-137.51-170.5-335.14-307.54-357.82-334.79 346.03 234.84 418.12 286.89 564.59 569.35 340.08 671.3 301.7 594.42 345.98 710.08 44.082-115.15 5.1118-37.224 345.98-710.08 145.35-280.3 214.99-332.08 564.59-569.35-22.178 26.655-221.1 165.26-357.82 334.79-209.91 260.29-254.24 557.98-152.67 820.83 35.444-16.446 70.556-32.943 108.43-43.18 110.41-29.846 243.79-14.958 349.95 24.147 19.883 7.3236 109.49 43.247 122.81 57.96-16.464-1.3434-12.892-7.094-84.761-27.014-177.93-49.364-420.57-22.289-537.36 120.91-100.31 122.99-134.13 294.97-155.34 447.99-9.3665 67.582-17.684 137.92-10.696 206.1 9.9932-74.371 22.838-143.32 49.674-214.05 57.966-152.75 167.83-308.33 321.09-376.37 76.945-34.155 129.25-39.056 212.66-38.199 249.91 2.5594 454.35 106.78 587.76 163.08 247.7 101.7 161.79 65.826 378.52 157.73-183.91-134.96 9.8462 1.1621-487.45-326.58-176.15-127.13-384.23-335.4-439.3-409.96-116.21-157.32-120.37-283.18-60.426-446.82 50.821-138.73 118.39-236.55 195.56-328.91 191.03-228.63 419.06-361.71 652.24-483.3 17.699-8.6329 35.831-18.863 55.052-23.37-48.916 31.19-266.95 130.57-525.38 387.09-145.71 144.63-289.02 322.56-336.95 526.34-34.668 147.39 5.4502 242.54 103.69 352 368.19 371.35 340.48 344.99 351.44 351.26-1.2683-10.16 1.9197 10.12-21.814-79.087-51.485-222.37 48.037-417.35 226.63-499.08-30.661 2.1951-61.195 3.937-91.296 10.629-78.919 17.551-151.55 60.242-207.69 117.95l-0.4636-1.2733c60.992-131.25 207.58-272.73 375.76-325.2-85.757-2.868-202.25 27.806-287.73 86.493-30.702 21.076-58.067 47.331-84.786 73.128 8.2271-24.141 27.584-51.571 41.723-73.164 88.184-134.7 215.57-227.74 362.15-290.15-112.47 17.872-221 59.871-314.92 124.13 3.3884-17.928 5.9956-21.027 56.096-112.19 109.18-191.12 249.42-379.25 425.54-514.17-5.394 156.27 17.123 310.91 12.575 467.1-9.9316 340.72-124.26 691.14-307.1 978.02-28.583 44.846-58.103 92.823-92.544 133.41l78.583 51.589 120.27-162.56 18.769 52.083c-28.955 42.671-71.101 83.421-91.616 130.46 77.21 35.414 212.53 116.53 228.36 129.25 11.916 9.5742-3.2251-2.6306 85.581 90.068l163.55 147.39c-481.38-179.24-531.44-213.12-853.87-228.84-538.59-26.276-659.87 110.98-761.61 420.43l50.173-28.985c52.647-33.252 48.517-40.589 164.08-45.91 82.286-3.7893 162.74-10.431 238.88-44.963 23.021-10.441 44.331-24.845 65.183-39.03 86.177-58.638 145.06-137.34 195.09-227.45 6.5244-11.755 6.6418-21.233 22.201-17.627-60.731 133.94-165.33 258.85-306.23 312.21-114.34 43.302-237.33 27.743-352.49 63.202-27.946 8.6072-53.555 23.373-79.581 36.421-42.126 154.21-66.578 317.44-41.851 476.85 4.9963 32.215 14.286 63.517 21.295 95.309-20.877-32.082-36.233-73.546-50.178-109.23-92.491-236.63-103.78-454.7-138.18-597.97-19.237-80.101-51.202-155.4-83.911-230.67-11.926-27.444-22.409-56.109-35.887-82.813zm-1056.6-1025.2 1.5737 0.326 3.4686 7.314-2.2461-0.7234-2.7962-6.9166zm2110.5 6.9167-2.2461 0.7234 3.4685-7.314 1.5737-0.326-2.7961 6.9166zm-1627.2-41.346c-47.035-105.47-103.71-179.98-107.44-193.42-2.8979-1.6859-3.8199-4.6345-5.4855-7.4975 2.3278 2.4861 4.6195 4.1412 5.4855 7.4975 21.662 16.487 35.102 43.208 51.757 65.397 151.2 201.4 184.09 466.42 211.06 709.3-63.823-115.34-142.9-219.39-199.3-339.53-67.775-144.37-107.88-301.58-168.6-449.12l-60.594-136.37c-10.37-21.529-27.845-45.462-33.223-68.442 24.117 26.083 97.631 161.03 143.43 273.36 106.11 268.86 100.9 274.55 220.96 477.57 16.059 27.157 30.63 55.888 47.978 82.153-28.547-142.05-46.43-287.22-106.04-420.9zm1040.8 420.9c17.347-26.266 31.919-54.996 47.978-82.153 44.041-74.472 87.501-149.1 122.6-228.34 86.549-219.3 120.82-320.9 199.45-455.88 12.555-21.539 25.598-48.599 42.34-66.706-5.3784 22.98-22.853 46.913-33.223 68.442l-60.594 136.37c-60.721 147.54-100.82 304.75-168.6 449.12-56.397 120.13-135.48 224.19-199.3 339.53 26.968-242.88 59.86-507.91 211.06-709.3 16.576-22.084 30.104-48.916 51.757-65.397 0.866-3.3563 3.1577-5.0114 5.4854-7.4975-1.6655 2.863-2.5874 5.8116-5.4854 7.4975-2.5774 9.2899-10.665 19.043-15.906 27.198-146.93 237.61-143.06 315.92-197.56 587.13zm-1288.6 801.79c46.102 89.338 132.46 110.11 195.73 76.143 40.771-21.886 57.752-54.472 70.362-97.524 18.307 8.2515 66.713 61.309 82.489 86.019 4.1665 5.0627 7.533 8.4548 8.0677 15.31-28.257 40.633-57.691 71.06-108.25 80.172-75.328 13.578-154.58-7.2222-216.42-51.426-82.744-59.142-116-134.38-131.69-231.86l80.04 5.9236c-0.9169 41.046 0.4531 79.993 19.675 117.24zm1662.2-117.24 80.04-5.9236c-15.692 97.474-48.951 172.72-131.69 231.86-61.842 44.204-141.09 65.004-216.42 51.426-50.56-9.1118-79.994-39.539-108.25-80.172 0.5347-6.8555 3.9011-10.248 8.0676-15.31 15.928-24.947 64.492-77.907 82.489-86.019 12.611 43.053 29.591 75.639 70.362 97.524 62.896 33.764 149.41 13.616 195.73-76.143 19.222-37.247 20.592-76.194 19.675-117.24zm-1597 60.008c5.1971-17.512 9.3618-25.864 18.758-43.929 45.152 10.778 93.175 28.812 135.24 48.538-7.1509 23.943-18.926 43.252-36.238 61.164-20.775 13.426-40.226 21.896-65.519 16.156-40.273-9.1386-60.566-51.548-52.241-81.929zm1502.8 51.187c-10.044 16.466-24.03 26.474-42.839 30.742-25.293 5.74-44.744-2.73-65.519-16.156-17.312-17.913-29.087-37.221-36.238-61.164 42.065-19.726 90.088-37.761 135.24-48.538 18.798 36.142 30.422 60.556 9.3559 95.116zm-746.71 1160.9c-211.32-2.0476-378.3 163.62-189.78 313.28 56.29 44.682 118.07 61.52 185.79 80.35-6.1067 30.539-21.193 55.618-47.56 72.96-28.175 18.534-64.622 20.918-97.249 23.663-24.193 2.032-49.017 4.3342-72.919-1.2227-131.71-30.614-309.55-200.98-249.19-448.91 13.288-54.589 35.072-106.63 49.542-160.94 84.468-316.96-91.837-584.88-350.04-648.73-129.52-32.036-249.93 0.2546-361.41 68.346-37.195 22.72-54.088 43.941-99.76 51.283-46.15 6.6277-153.55-21.222-230.11-8.8418 141.04 22.31 348.33 100.4 407.46 131.25 31.349 16.359 61.46 36.136 90.985 55.562 16.283 10.716 40.343 23.144 53.489 37.114-22.216-4.0796-47.387-20.001-69.96-27.06-45.559-14.256-93.251-23.179-140.07-32.301l149.15 71.081c148.11 78.588 272.63 197.6 350.58 346.91l57.42 122.94c7.426 17.179 13.028 35.092 21.366 51.859-6.3075-64.6-25.188-112.36-52.19-179.09-61.821-152.77-138.15-298.07-259.35-412.77-112.92-106.87-133.21-96.12-168.22-127.08 40.895 9.0708 262.54 92.478 409.57 323.12 53.815 84.415 76.601 170.6 100.55 266.46 1.528-73.302-10.487-144.82-27.101-216.03-57.897-248.1-144.57-356.22-172.33-397.4 78.821 39.462 201.85 166.71 248.19 306.24 40.65 122.41 27.31 177.01-15.188 295.94-25.761 72.089-51.131 140.38-49.811 218.17-153.96-173.47-385.22-333.74-399.54-350.51 18.717 3.0508 40.007 16.232 57.314 24.61 100.29 48.521 115.7 53.647 222.21 136.45-14.556-22.344-35.163-42.365-54.028-61.18-82.107-81.893-176.87-139.11-279.15-192.22-57.232-29.719-115.29-58.409-175.31-82.123 202.7 27.618 273.16 71.936 305.17 82.591-31.379-24.193-71.055-43.012-106.56-60.772-152.06-76.067-316.32-135.76-478.52-186.06 21.824-1.2666 17.685-0.3157 196.46 12.183-215.24-80.132-266.49-144.85-538.3-119.25 9.9776-6.5857 29.072-9.9468 40.781-13.227 115.84-32.443 222.01-40.508 394.22-60.11-144.12-32.135-284.71-41.799-425.94 5.2056-82.1 27.322-96.427 45.942-121.14 57.543l1.5433-3.7588c6.6925-11.022 23.434-23.306 33.182-32.255 48.014-44.092 96.97-82.199 149.16-121.04 65.572-48.797 119.18-89.645 170.21-96.44-70.536-6.5093-141.78 5.1697-210.24 21.447-134.29 31.923-171.92 50.469-247.8 90.226 85.76-75.215 123.69-156.75 175.8-218.92 69.125-82.49 152.76-134.8 261.85-144 115.71-9.7534 242.2 26.154 348.62 69.649 23.052 9.4224 54.828 21.687 73.821 37.736-31.389-10.675-61.551-22.314-94.127-29.332-93.929-20.225-206.33-13.66-298.01 14.164-85.607 25.985-217 93.138-235.58 108.06 164.18-39.824 329.92 0.759 493.79 20.786 135.7 16.199 136.1 14.71 152.99 21.804-39.106-1.9048-78.058-4.5635-117.22-1.8538-191.56 13.263-306.45 92.407-356.69 119.94 222.04-32.838 353.87 48.06 459.45 43.399 77.373-3.4126 138.38-67.141 266.71-74.565-121.29-85.586-244.1-179.17-299.76-472.99 5.9081-4.1001 7.5126-2.9592 14.465-2.939 5.6433 14.938 8.5565 30.789 12.978 46.129l23.668 70.836c52.409 143.69 141.74 275.75 285.5 340.37 107.59 48.371 265.23 67.597 395.55 248.6 140.29 194.8 89.751 392.44 109.77 526.97 7.6248 51.207 23.953 98.508 43.904 146.04 17.178-333.82 130.87-418.06 205.69-797.93 1.2478 27.656-6.4631 59.106-10.797 86.717-15.911 101.36-48.935 195.9-79.53 293.25-44.353 161.6-89.851 305.34-92.467 391.67 13.956-14.312 27.361-28.242 43.949-39.564 109.48-74.754 308.81-76.102 420.26 0 16.589 11.322 29.994 25.252 43.949 39.564-2.6697-88.091-50.294-238.01-92.467-391.67-30.595-97.346-63.619-191.89-79.53-293.25-4.3342-27.61-12.045-59.061-10.797-86.717 74.742 379.48 188.5 463.91 205.69 797.93 19.95-47.535 36.279-94.835 43.904-146.04 19.906-133.78-29.886-333.06 109.77-526.97 130.24-180.89 287.73-200.13 395.55-248.6 143.76-64.622 233.09-196.68 285.5-340.37l23.668-70.836c4.4211-15.341 7.3345-31.191 12.978-46.129 6.9519-0.0203 8.5564-1.1611 14.465 2.939-54.595 288.21-172.62 383.28-299.76 472.99 128.4 7.428 189.13 71.143 266.71 74.565 104.85 4.6292 238.82-76.029 459.45-43.399-46.059-25.248-161.78-106.45-356.69-119.94-39.162-2.7097-78.114-0.051-117.22 1.8538 17.283-7.2581 18.777-5.7822 152.99-21.804 163.87-20.027 329.61-60.609 493.79-20.786-18.574-14.914-149.97-82.07-235.58-108.06-91.678-27.824-204.08-34.389-298.01-14.164-32.576 7.0183-62.738 18.656-94.127 29.332 18.992-16.049 50.769-28.313 73.821-37.736 106.42-43.496 232.91-79.403 348.62-69.649 109.09 9.1982 192.73 61.51 261.85 144 49.01 58.48 91.956 145.39 175.8 218.92-69.795-36.571-106.06-56.532-247.8-90.226-68.458-16.278-139.7-27.956-210.24-21.447 53.578 7.1345 108.79 50.731 170.21 96.44 52.19 38.841 101.15 76.948 149.16 121.04 9.748 8.949 26.489 21.234 33.182 32.255l1.543 3.7588c-26.36-12.374-39.194-30.272-121.14-57.543-141.23-47.006-281.83-37.339-425.94-5.2056 172.49 19.634 278.93 27.821 394.22 60.11 11.709 3.2805 30.804 6.6416 40.781 13.227-271.62-25.58-323.12 39.134-538.3 119.25 186.56-13.042 176.79-13.324 196.47-12.183-162.2 50.305-326.45 110-478.52 186.06-35.51 17.76-75.186 36.58-106.56 60.772 30.581-10.178 103.71-55.142 305.17-82.591-60.023 23.714-118.08 52.404-175.31 82.123-102.29 53.117-197.05 110.33-279.15 192.22-18.865 18.815-39.472 38.836-54.029 61.18 105.21-81.789 120.25-87.121 222.21-136.45 17.307-8.3782 38.596-21.56 57.314-24.61-13.971 16.365-246.24 177.79-399.54 350.51 1.3193-77.783-24.05-146.08-49.811-218.17-42.285-118.33-56.01-173.02-15.188-295.94 46.312-139.46 169.54-266.87 248.19-306.24-23.92 35.478-113.56 145.52-172.33 397.4-16.614 71.208-28.629 142.73-27.101 216.03 23.953-95.859 46.74-182.05 100.55-266.46 80.493-126.27 196.5-229.68 332.52-292.65 23.729-10.986 51.538-24.804 77.05-30.462-34.261 30.298-55.753 20.632-168.22 127.08-121.2 114.7-197.53 260.01-259.35 412.77-26.594 65.717-45.876 114.42-52.19 179.09 8.3376-16.767 13.94-34.679 21.366-51.859l57.42-122.94c77.951-149.31 202.48-268.32 350.58-346.91l149.15-71.081c-46.822 9.1221-94.514 18.045-140.07 32.301-22.573 7.0593-47.744 22.981-69.96 27.06 13.146-13.97 37.206-26.398 53.489-37.114 29.525-19.425 59.636-39.202 90.985-55.562 63.539-33.154 269.54-109.44 407.46-131.25-75.414-12.196-184.83 15.344-230.1 8.8418-45.573-7.3259-62.646-28.612-99.76-51.283-111.49-68.091-231.89-100.38-361.41-68.346-257.76 63.741-434.62 331.3-350.03 648.73 14.47 54.309 36.253 106.35 49.542 160.94 60.359 247.95-117.69 418.34-249.19 448.91-23.902 5.5569-48.727 3.2546-72.919 1.2227-32.627-2.7454-69.074-5.1292-97.25-23.663-26.367-17.342-41.454-42.421-47.56-72.96 67.729-18.83 129.5-35.668 185.79-80.35 188.59-149.72 21.39-315.33-189.78-313.28zm-24.178 599.31c-95.383-13.317-165.65-16.543-216.99-93.404 44.469 14.449 93.094 13.425 138.93 5.8926 47.677-7.8347 75.336-26.682 102.24-58.317 26.906 31.636 54.564 50.482 102.24 58.317 45.834 7.5327 94.458 8.5566 138.93-5.8926-51.2 76.649-120.57 79.942-216.99 93.404-12.142 0.146-36.144 0.1468-48.355 0zm-1667.5-406.07c-10.034-8.0779-42.859-108.03-49.745-128.65-92.718-303.96-5.9803-453.89-10.003-474.31-82.318 7.5862-141.05 20.049-250.67 101.69 6.1781-57.38 24.62-117.72 49.088-169.8 39.075-11.225 76.912-14.281 117.3-16.675 81.726-3.8818 202.63 26.026 242.36 41.036-8.1356 20.409-166.94 226.51-98.329 646.71zm3285-646.71c42.433-16.032 161.85-44.86 242.36-41.036 40.384 2.3943 78.221 5.45 117.3 16.675 24.468 52.078 42.91 112.42 49.088 169.8-109.19-81.322-168.01-94.074-250.67-101.69-4.0439 20.525 82.863 169.86-10.003 474.31-6.8862 20.627-39.712 120.58-49.746 128.65 69.024-422.73-92.582-632.29-98.329-646.71zm-1948.2 1508.4-103.43-66.787c-323.9-196.05-719.85-309.74-799.42-797.42-7.9252-48.564-10.171-97.499-14.938-146.4 29.805 71.356 60.966 145.41 97.621 213.44 84.954 157.67 206.95 303.62 346.24 415.92 161.79 130.45 284.04 182.13 463.02 351.85 22.507 21.335 47.326 43.313 66.328 67.867-17.673-6.4326-39.146-27.406-55.414-38.474zm654.31 38.474c29.009-37.484 151.79-154.73 313.69-265.01 164.21-111.85 392.96-257.09 561.9-570.63 36.656-68.03 67.816-142.08 97.621-213.44-4.7673 48.9-7.0132 97.835-14.938 146.4-79.611 487.93-476.37 601.88-799.42 797.42l-103.43 66.787c-16.268 11.067-37.741 32.041-55.414 38.474zm-299.45 56.549c-0.2532 0.688-0.5063 1.376-0.7593 2.064-5.4089-3.6821-13.762-32.52-16.542-39.717-167.03-432.25-441.81-473.06-792.36-894.27-136.8-164.4-169.26-213.05-350.83-339.52 10.472 16.095 23.541 29.469 35.306 44.535 174.83 237.83 270.52 423.94 531.33 654.2 238.49 210.55 485.19 363 547.35 820.27-96.077-257.89-170.31-416.77-388.34-585.53-186.86-131.2-119.76-83.778-294.39-207.91-288.34-224.94-344.9-410.34-465.43-633.34l-71.08-126.16c-16.672-29.025-29.575-48.54-43.384-78.985-72.552 230.6-53.881 508.12 37.817 730.76 41.303 100.28 82.936 157.67 93.888 181.71-13.278-7.3035-26.546-21.152-38.173-31.084-302.58-258.56-484.19-676.56-351.12-1056.2 2.9185-8.3325 6.3613-24.875 13.477-30.198 18.645 6.8853 17.478 7.8203 17.826 8.5161 2.3855 4.772-12.282 267.83 72.741 532.88 9.3563 29.168 18.28 60.094 30.916 87.98-20.258-191.31-0.0487-421.09 35.061-547.56 113 67.3 390.13 262.56 598.4 473.06 101.26 102.34 192.44 212.84 300.4 308.7 222.17 189.41 162.18 141.13 273.54 222.14 82.462 57.055 46.629 12.627 178.71 250.35 13.395 22.481 26.698 46.496 43.72 66.359 0.6487-0.3774 1.2922-0.7993 1.9304-1.2612 0.6382 0.4619 1.2817 0.8838 1.9304 1.2612 17.022-19.863 30.325-43.877 43.72-66.359 131.77-237.16 95.953-193.09 178.71-250.35 111.41-81.053 51.351-32.719 273.54-222.14 107.97-95.859 199.14-206.36 300.4-308.7 196.12-198.22 471.58-397.52 598.4-473.06 34.996 126.07 55.379 355.7 35.062 547.56 12.636-27.885 21.559-58.811 30.916-87.98 86.034-268.21 69.931-527.26 72.741-532.88 0.9456-1.8911 4.9214-3.7507 17.826-8.5161 7.1152 5.3228 10.558 21.866 13.477 30.198 106.24 303.11 13.718 619.76-179.83 876.51-76.507 101.49-191.28 200.78-209.47 210.78 11.928-26.187 52.036-80.1 93.888-181.71 91.698-222.64 110.37-500.15 37.817-730.76-13.81 30.447-26.72 49.974-43.384 78.985l-71.08 126.16c-120.92 223.73-177.36 408.61-465.43 633.34-174.64 124.14-107.54 76.712-294.39 207.91-218.31 168.98-292.44 328.13-388.34 585.53 61.606-453.21 302.76-604.34 547.35-820.27 260.85-230.3 356.4-416.24 531.33-654.2 11.765-15.066 24.834-28.44 35.306-44.535-181.23 126.22-213.52 174.5-350.83 339.52-256.6 308.32-428.18 377.83-618.33 595.47-143.21 163.91-178.78 330.5-190.57 338.52-0.2531-0.688-0.5062-1.376-0.7594-2.064z"/> <path d="m1179.8 1790.1c-15.858-50.029-48.847-98.822-73.194-146.07-172.55-374.45-253.1-589.67-300.92-1049.7-4.3956-42.294-13.1-85.632-15.422-127.79l-2.4653-1.7265c-2.0919 444.61 33.063 678.3 244.99 1082.6 99.236 172.67 121.1 213.59 147 242.71z"/> <path d="m3741.8 1790.1c15.858-50.029 48.847-98.822 73.195-146.07 172.55-374.45 253.1-589.67 300.92-1049.7 4.3955-42.294 13.1-85.632 15.422-127.79l2.4653-1.7265c2.0918 444.61-33.064 678.3-244.99 1082.6-99.236 172.67-121.1 213.59-147 242.71z"/> <path d="m2308.4 2314.7c26.211-97.508 30.828-122.19 109.89-309.88 3.886-9.2185 30.676-58.281 30.493-62.224-0.5042-10.777-9.1831-29.123-12.484-39.849-49.995-162.61-139.24-305.23-210.32-458.51-63.013-150.56-49.175-125.35-59.891-145.34 17.133 116.19-5.0881 240.17-34.955 352.55-19.107 71.893-25.759 63.41-25.72 72.848 0.0049 1.3037 32.265 38.178 36.63 44.27 37.272 52.032 64.837 108.86 89.747 167.61 85.878 202.52 71.272 315.31 76.617 378.53z"/> <path d="m2613.2 2314.7c-26.211-97.508-30.828-122.19-109.89-309.88-3.886-9.2185-30.676-58.281-30.493-62.224 0.5042-10.777 9.1831-29.123 12.484-39.849 49.995-162.61 139.24-305.23 210.32-458.51 63.013-150.56 49.175-125.35 59.891-145.34-17.133 116.19 5.0881 240.17 34.955 352.55 19.107 71.893 25.759 63.41 25.721 72.848-0.0051 1.3037-32.265 38.178-36.63 44.27-37.272 52.032-64.837 108.86-89.747 167.61-85.878 202.52-71.272 315.31-76.617 378.53z"/> <path d="m1643.5 2018.6c138.58 22.62 243.98 54.592 344.39 153.54 184.77 182.1 206.79 505.59 254.98 597.65 4.4106-87.353-24.6-180.27-43.43-265.39-41.034-185.43-60.196-334.34-187.64-474.72-71.111-78.339-166.23-128.97-272.5-134.22l-50.636 0.2391c-135.11 10.706-260.79 63.858-390.46 98.971 115.36-0.907 231.36 5.3323 345.29 23.928z"/> <path d="m3278.1 2018.6c-138.58 22.62-243.98 54.592-344.39 153.54-184.77 182.1-206.79 505.59-254.98 597.65-4.4106-87.353 24.6-180.27 43.43-265.39 41.034-185.43 60.196-334.34 187.64-474.72 71.111-78.339 166.23-128.97 272.5-134.22l50.637 0.2391c135.11 10.706 260.79 63.858 390.46 98.971-115.36-0.907-231.36 5.3323-345.29 23.928z"/> </svg>