<?xml version='1.0' encoding='utf-8'?>
<svg xmlns="http://www.w3.org/2000/svg" clip-rule="evenodd" fill-rule="evenodd" stroke-linecap="round" stroke-linejoin="round" stroke-miterlimit="1.5" version="1.1" viewBox="0 0 4678 6615"> <g transform="scale(1.3333)"> <g transform="matrix(1 0 0 1.2095 0 2)"> <rect width="3507.9" height="3126" fill="url(#j)"/> </g> <g transform="matrix(.94418 0 0 .93323 74.555 25.439)"> <path d="m1896 820-48-164-7-176 9-114-74 42-66 81-19 98c12.14 48.373 33.08 129.8 30 121l75 121 100-9z" fill="#e2e2e2"/> </g> <g transform="matrix(.85363 0 0 .83499 -189.51 177.66)"> <path d="m2347.7 238.92c-1.07 6.837-2.58 16.501-2.76 17.479-11.59 65.438-13.31 133.38-11.39 199.6 2.41 82.737 28.2 165.77 53.03 243.98 4.51 14.181 6.75 33.153 23.86 61.214 2.73 4.487 8.52 5.86 12.91 3.063 4.39-2.796 5.73-8.71 3-13.198-15.91-26.083-17.75-43.814-21.94-56.995-24.29-76.511-49.77-157.69-52.12-238.63-1.89-64.892-0.27-131.48 11.1-195.61 0.32-1.853 4.51-24.398 4.04-29.51-0.52-5.606-3.95-7.895-5.8-8.746-6.02-2.78-13.48-2.696-21.34-0.215-13.66 4.312-29.06 16.078-36.23 21.454-86.97 65.23-120.53 116.25-129.76 195.31-3.13 26.799-1.93 74.336 6.18 100.2 2.13 6.768 10.47 27.674 23.83 49.457 2.75 4.479 8.54 5.834 12.92 3.024s5.71-8.728 2.96-13.208c-12.21-19.896-19.92-38.943-21.86-45.125-7.45-23.764-8.3-67.455-5.42-92.077 8.63-73.96 40.87-121.1 122.24-182.13 5.33-3.998 15.8-12.248 26.16-16.86 2.2-0.979 4.36-1.921 6.39-2.468z"/> </g> <g transform="matrix(.98261 .078866 -.073867 .88057 -305.01 44.589)"> <path d="m1790 1083c11.11-77.88-170.13-41.01-236 2-81.93 53.5-166.6 160.48-255.6 318.98-63.86 113.74-135.81 266-215.65 340.1-109.7 101.81-218.94 72.38-218.94 72.38 34.213 73.58 114.32 136.07 221.5 130.48 93.99-4.89 285.05-103.02 376.37-214.97 117.45-144 312.93-541.14 328.32-648.97z" fill="#bf52cc"/> <clipPath id="h"> <path d="m1790 1083c11.11-77.88-170.13-41.01-236 2-81.93 53.5-166.6 160.48-255.6 318.98-63.86 113.74-135.81 266-215.65 340.1-109.7 101.81-218.94 72.38-218.94 72.38 34.213 73.58 114.32 136.07 221.5 130.48 93.99-4.89 285.05-103.02 376.37-214.97 117.45-144 312.93-541.14 328.32-648.97z"/> </clipPath> <g clip-path="url(#h)"> <g transform="matrix(1.0109 -.090538 .084799 1.128 304.55 -77.912)"> <path d="m409.6 1714c7.528 5.82 28.637 19.32 45.169 21.92 19.066 3 46.853 1.88 69.227-3.92 25.038-6.49 56.873-18.18 81-35 24.5-17.08 97.46-68.14 66-67.49-32.566 0.66-217.83 57.41-261.4 71.49-4.123 1.33-3.428 10.35 0 13z" fill="#f28aff"/> <path d="m819 1621c-0.333-17.33-75.833 41-104 57-21.97 12.48-41.366 30.06-65 39-26 9.83-88.833 15.5-91 20s73.333 0.5 78 7-31.228 25.74-50 32c-19 6.33-42.574 6.16-64 6-22-0.17-72-21.67-68-7s48.333 93.83 92 95 124.67-46.5 170-88 102.33-143.67 102-161z" fill="#7f118c"/> </g> </g> <path d="m1790 1083c11.11-77.88-170.13-41.01-236 2-81.93 53.5-166.6 160.48-255.6 318.98-63.86 113.74-135.81 266-215.65 340.1-109.7 101.81-218.94 72.38-218.94 72.38 34.213 73.58 114.32 136.07 221.5 130.48 93.99-4.89 285.05-103.02 376.37-214.97 117.45-144 312.93-541.14 328.32-648.97z" fill="none" stroke="#000" stroke-width="15.61px"/> </g> <g transform="matrix(.85363 0 0 .83499 -357.68 474.91)"> <path d="m2738 647c3.83-87.333-137.67-299-261-380s-329.83-140.33-479-106-298.04 172.84-416 312c-120.82 142.54-255 392.33-361 494-71.8 68.87-145.96 115.93-275 116-123.11 0.07-260-109-260-109s61.413 197.08 129 271c81.038 88.63 189.01 141.79 301 153 123.17 12.33 302.9-17.71 438-79 223-101.17 702.67-416 900-528 92.31-52.391 280.17-56.667 284-144z" fill="#7442a0"/> <clipPath id="g"> <path d="m2738 647c3.83-87.333-137.67-299-261-380s-329.83-140.33-479-106-298.04 172.84-416 312c-120.82 142.54-255 392.33-361 494-71.8 68.87-145.96 115.93-275 116-123.11 0.07-260-109-260-109s61.413 197.08 129 271c81.038 88.63 189.01 141.79 301 153 123.17 12.33 302.9-17.71 438-79 223-101.17 702.67-416 900-528 92.31-52.391 280.17-56.667 284-144z"/> </clipPath> <g clip-path="url(#g)"> <g transform="matrix(1.1715 0 0 1.1976 419.01 -568.76)"> <path d="m1591 647c-32.5-5.167-108.17-23.667-156-24-44.28-0.309-90.77 3.502-131 22-51.83 23.833-168.5 107-180 121s114.38-49.5 111-37c-3.37 12.5-142.06 112.33-131.23 112 10.84-0.333 149.03-88.833 196.23-114 27.81-14.826 57.17-29.5 87-37s61.27-6.248 92-8c32.17-1.833 68.97-3.833 101-3 30.49 0.793 85.83 10.5 91.16 8 5.34-2.5-52.3-17.5-59.16-23-5.36-4.293 21.5-7.167 18-10s-25.96-4.926-39-7z" fill="#cf98ff"/> <path d="m1485 774.07c-33.23-1.827-67.62-0.084-99.34 10-51.33 16.321-207.33 83.107-208.66 87.928s151.5-49.167 200.66-59c30.84-6.167 64.28 1 94.34 0 28.72-0.956 76.17-2.667 86-6 9.6-3.255-34.66-12.179-27-14s80.62 6.227 72.95 3.072c-7.67-3.154-82.57-20-118.95-22z" fill="#cf98ff"/> <path d="m901 1269c-11.5 4 12.11-72.03 5-55-19.103 45.76-133.81 138.77-148 123-12.221-32.28-2.342-63.77 15-95 0 0-83.102 85.76-127 115-30.848 20.55-129.86 44.03-133 38.2 0 0 61.34 14.81 92 11.07 32.667-3.99 74.667-33.16 104-35 25.242-1.59 47.609 30.62 72 23.93 29.667-8.13 77.5-48.55 106-72.75 24.732-21 50.333-50.37 65-72.45 11.853-17.84 31.5-63.17 23-60s-62.5 75-74 79z" fill="#cf98ff"/> <path d="m1973.4 976.96c31.84-23-72.17-113.96-121.41-154.96s-110.99-73.265-174-91c-67.5-19-153.85-34.021-231-23-171.5 24.5-318 153-318 153s183.52-96.734 314-101c138.04-4.514 272.54 38.442 216 65s-328.06-21.65-555.23 94.35c-149.18 76.178-330.77 375.21-327.77 385.65s164.94-248.17 345.77-323c63.12-26.12 133.86-38.725 199.23-48 63.75-9.044 197.33-19.675 193-7.65s-162.93 49.191-219 79.8c-45.86 25.04-141.42 103.85-117.42 103.85s180.85-78.85 261.42-103.85c72.19-22.399 146.53-42.027 222-46.15 89.07-4.866 280.58 39.956 312.41 16.956z" fill="#350460"/> <path d="m975 1395c0.76-21.31-29.167 52.51-53.443 68.12-33.172 21.34-93.951 50.57-145.59 59.88-54.426 9.81-123.8 9.67-180.96-1-56.956-10.63-159.83-67.5-162-63s93.788 72.15 149 90c60.333 19.5 208.17 15.67 213 27s-127 37.88-184 41c-53.109 2.9-137.67-26.88-158-22.29-19.982 4.5 15.829 46.23 36 49.8 47 8.3 174.67 8.91 246 0 62.746-7.85 142-11.93 182-53.51s57.24-174.69 58-196z" fill="#350460"/> </g> </g> <path d="m2738 647c3.83-87.333-137.67-299-261-380s-329.83-140.33-479-106-298.04 172.84-416 312c-120.82 142.54-255 392.33-361 494-71.8 68.87-145.96 115.93-275 116-123.11 0.07-260-109-260-109s61.413 197.08 129 271c81.038 88.63 189.01 141.79 301 153 123.17 12.33 302.9-17.71 438-79 223-101.17 702.67-416 900-528 92.31-52.391 280.17-56.667 284-144z" fill="none" stroke="#000" stroke-width="17.27px"/> </g> <g transform="matrix(.94418 0 0 .93323 74.555 25.439)"> <path d="m2135 1143 405 340 76 475-76 725-239 50-23-16-14-27-3-44-24-13-28-39-7-60 27-86-19-13-42-13-21-55 8-66 23-39-23-12-27-17-22-60 10-55 25-43-20-19-26-31-3-53 8-41 13-21-110 31 11 86 15 128 117 511-186 154-69 56-206 113-136 46-157 24-137 25-220 67-213 74-113 46-52 27-28 41-38 24-181 47-17-11-52-35-72-77-17-35-68-49-40-57 87-31 7-12 61-20 27 14 60-28 21 45 32.236 29.5 64.764-9.5 115-30 127-40 216-83 2-34 5-84 54-18-4-20 94-41 13 15 82-38 12 8 41-38 58 3 8-31 68-32 8 7 13-23 45-13 17 19 34 56 23-22 64-69 89-29 128-27 86-19-12-72-28-163-5-154-3-178-49 15-6 56-61 125-53 58-71 37 5 83-19 8-23-20-9-50-24-5 20 84-13 15-44 2-16-12-20-78-44 1 3 120-77 7-21-133-33 3-67.24 10.07 8.24 176.93-70 11-33.3-13.5-73.23 20.36 6.53 13.14 11 31-55 33-37.348 7.39-32.125-9.53-15.527 16.14-35 15-18-7-57 23-13-19-30-123-60 20-204 82-112 60-70 88-20 69 3 173-10 22-37 16-11-10-57 13-28 15-74 4-7.645-8.78-9.355-225.22 5-102 33-114 34-59 58-53 85-59 75-68-9-8-152 70-126 98 21-45 34-51-54 17 12-30 59-84 149-162 67-61 120-115 97-95 175-148 84-77 70-159 53-77 36-28 29 13 57-8 54-26 47-50 17-56 3-30 43-42 99-72 163-63 340-22 176 49 90 57z" fill="#f2f2f2"/> <clipPath id="f"> <path d="m2135 1143 405 340 76 475-76 725-239 50-23-16-14-27-3-44-24-13-28-39-7-60 27-86-19-13-42-13-21-55 8-66 23-39-23-12-27-17-22-60 10-55 25-43-20-19-26-31-3-53 8-41 13-21-110 31 11 86 15 128 117 511-186 154-69 56-206 113-136 46-157 24-137 25-220 67-213 74-113 46-52 27-28 41-38 24-181 47-17-11-52-35-72-77-17-35-68-49-40-57 87-31 7-12 61-20 27 14 60-28 21 45 32.236 29.5 64.764-9.5 115-30 127-40 216-83 2-34 5-84 54-18-4-20 94-41 13 15 82-38 12 8 41-38 58 3 8-31 68-32 8 7 13-23 45-13 17 19 34 56 23-22 64-69 89-29 128-27 86-19-12-72-28-163-5-154-3-178-49 15-6 56-61 125-53 58-71 37 5 83-19 8-23-20-9-50-24-5 20 84-13 15-44 2-16-12-20-78-44 1 3 120-77 7-21-133-33 3-67.24 10.07 8.24 176.93-70 11-33.3-13.5-73.23 20.36 6.53 13.14 11 31-55 33-37.348 7.39-32.125-9.53-15.527 16.14-35 15-18-7-57 23-13-19-30-123-60 20-204 82-112 60-70 88-20 69 3 173-10 22-37 16-11-10-57 13-28 15-74 4-7.645-8.78-9.355-225.22 5-102 33-114 34-59 58-53 85-59 75-68-9-8-152 70-126 98 21-45 34-51-54 17 12-30 59-84 149-162 67-61 120-115 97-95 175-148 84-77 70-159 53-77 36-28 29 13 57-8 54-26 47-50 17-56 3-30 43-42 99-72 163-63 340-22 176 49 90 57z"/> </clipPath> <g clip-path="url(#f)"> <g transform="matrix(1.0591 0 0 1.0716 -78.962 -27.259)"> <path d="m2057.8 2372.7c-126.03 150.08-200.99 223.83-290.16 288.07-67.74 48.81-123.18 88.38-198.08 125.2-83.88 41.23-121.21 78.19-251.84 97.62-141.28 21.02-341.95 114.69-473.45 170.4-97.719 41.4-255.6 82.48-453.66 81.02-33.114-0.24-60.196 26.44-60.44 59.56-0.244 33.11 26.442 60.19 59.556 60.44 218.96 1.61 393.33-44.76 501.36-90.52 123.61-52.37 311.5-142.45 444.3-162.2 148.47-22.1 191.78-61.77 287.11-108.63 81.32-39.97 141.76-82.54 215.3-135.53 95.64-68.9 176.73-147.29 311.91-308.26 21.29-25.35 17.99-63.23-7.36-84.53-25.36-21.3-63.24-18-84.54 7.36z" fill="#e2e2e2"/> </g> <g transform="matrix(.99236 0 0 1.1726 84.304 -222.5)"> <path d="m1863.5 1196.5c5.04 33.9-13.22 73.8-27.71 103.42-23.55 48.17-50.33 104.12-94.35 137.13-37.52 28.14-151.19 96.33-152.27 111.61-1.46 20.75 76.58 68.44 95.22 111.29 18.42 42.36 27.84 117.2 31.58 163.46 0.13 1.62 152.3-36.05 205.03-49.15 98-24.35 210.4-53.89 222.72-76.28 8.05-14.65-25.68-108.46-44.64-168.21-20.79-65.51 172.88-245.71 186.15-301.14 26.51-110.69-302.71-157.34-371.35-95.96" fill="#e2e2e2"/> </g> <g transform="matrix(1.0591 0 0 1.0716 -78.962 -27.259)"> <path d="m964.71 2805.7c37.186 11.88 61.456-0.1 90.006-25.19 0.8-0.7 16.53 4.55 22.34 6.12 15.38 4.14 34.72 5.44 49.12-2.13 12.55-6.6 25.94-18.69 33.36-30.68 1.8-2.91 3.9-13 5.87-14.73 3.61-3.17 17.4 0.39 21.72 0.09 7.5-0.52 16.7-5.37 22.97-9.26 11.87-7.39 21.58-17.45 32.12-26.42 2.16-1.83 4.88-7.59 7.31-8.71 16.95-7.82 37.26-8.87 54.06-17.7 13.58-7.14 21.47-19.44 34.49-25.76 6.33-3.07 13.68-3.5 20.39-5.37 15.76-4.42 32.33-10.77 47.26-17.52 9.67-4.37 14.13-15.91 22.86-21.13 9.76-5.83 19.63-10.81 29.55-16.77 14.92-8.96 34.7-13.59 44.07-29.1 8.11-13.42 0.34-21.71-5.15-35.21-6.53-16.05-12.67-33.02-21.31-48.1-13.38-23.34-49.23-32.5-74.14-29.19-17.27 2.3-35.8 10.87-51.79 17.42-67.47 27.66-124.13 77.47-188.84 110.37-23.93 12.17-49.3 24.83-75.06 32.71-29.57 9.05-63.89 16.25-89.788 34.29-21.388 14.9-17.109 39.99-18.433 62.65-0.845 14.45-2.528 29.15-3.602 43.64-1.112 15.02-6.169 29.07-10.504 43.37-0.554 1.83-3.227 12.9 0.926 11.03" fill="#e6e4cd"/> <path d="m1334.5 2643.4c-0.56 2.62 0.87 5.32 3.45 6.29 2.84 1.07 6.01-0.37 7.08-3.22 0.55-1.48 0.58-5.04-0.69-9.76-3.38-12.47-14.26-37.76-15.33-41.57-0.82-2.92-3.85-4.63-6.78-3.82-2.92 0.82-4.63 3.86-3.81 6.78 0.93 3.35 9.42 23.25 13.8 36.56 1.17 3.56 2.13 8.05 2.28 8.74z" fill="#cfccb2"/> <path d="m1256.7 2680.7c-0.56-1.38-1.87-4.68-2.07-5.52-1.46-6.11-1.86-12.43-3.51-18.48-4.6-16.85-9.68-32.68-8.41-53.84 0.19-3.03-2.12-5.64-5.15-5.83-3.03-0.18-5.64 2.13-5.83 5.16-1.35 22.56 3.87 39.45 8.78 57.41 1.62 5.94 1.99 12.13 3.42 18.13 0.37 1.58 2.62 7.56 3.45 9.01 0.66 1.16 1.4 1.75 1.78 2.02 2.64 1.87 4.88 1.16 6.52-0.08 0.73-0.54 2.24-1.74 2.24-4.53 0-1.3-0.46-2.5-1.22-3.45zm-9.14 0.88c-0.32 0.56-0.59 1.29-0.63 2.26 0.04-0.81 0.26-1.58 0.63-2.26z" fill="#cfccb2"/> <path d="m1335.6 2182.1c-4.2-10.06 3.44-14.3 10.54-19.26 13.46-9.38 37.99-6.72 52.21-0.74 34.34 14.45 27.52 61.43 28.83 91.37 0.51 11.76 3.75 26.94-0.62 38.18-3.65 9.4-14.6 21.14-23.47 25.58-28.39 14.21-63.88-8.98-76.09-35.21-5.3-11.38-5.15-26.62-5.15-38.93 0-15.45-1.6-33.15 2.16-48.27 1.31-5.27 5.76-8.5 7.72-13.35 0.6-1.48 1.1-3.18 1.44-4.73 0.26-1.17 0.55-4.48 1.14-3.42 0.44 0.8 0.64 1.61 0.82 2.5" fill="#e6e4cd"/> <path d="m1463.6 2173.9c30.91-22.78 68.51-2.42 100.24-6.47 7.03-0.9 29.43-12.35 33.77-10.2 21.55 10.68 31.98 44 34.6 65.43 1.05 8.67 2.19 18.2-1.65 26.32-10.94 23.11-35.32 33.6-59.21 37.81-15.49 2.72-33.83 6.02-49.52 3.24-25.6-4.53-50.44-27.59-60.34-51.34-6.46-15.49-6.54-33.92-2.78-50.04 0.45-1.92 5.11-14.46 6.9-14.46" fill="#e6e4cd"/> <path d="m1156.6 2628.3c13.25 23.62 21.87 49.8 23.37 77.05 0.43 7.86 0.99 15.81 0.99 23.67 0 0.08 0.06 0.64 0 0.69-1.46 1.3-6.18-0.65-7.78-0.79-15.81-1.33-12.92-20.77-16.11-35.89-2.28-10.81-5.29-21.77-8.55-32.35-2.26-7.38-9.24-24.77-5.8-32.55 0.71-1.61 7.23-2.54 7.23-3.55" fill="#cfccb2"/> <path d="m2086.4 1984.8c-8.47 20.42-21.26 41.49-26.62 62.24-9.43 36.5-6.12 72.17 22.24 106.27 1.95 2.35 4.36 4.67 7.07 6.91-4.79 28.94-6.31 67.1 2.04 91.63 4.3 12.63 12.21 25.38 23.18 37.03 4.12 4.37 10.17 9.85 16.06 14.92-1.82 5.94-3.27 11.95-3.63 16.8-3.06 41.7 13.92 104.79 43.15 161.82 29.78 58.11 72.04 108.7 109.29 129.06 29.06 15.89 65.54 5.19 81.43-23.87 15.88-29.06 5.18-65.54-23.87-81.42-21.78-11.9-42.65-44.55-60.06-78.5-17.02-33.21-30.66-68.79-30.41-94.22 3.85-10.24 13.48-38.4 10.67-56.33-1.89-12-7.79-26.59-20.9-40.47-6.71-7.11-25.63-22.94-32.39-28.54-1.33-11.25 3.03-26.43 5.34-36.12 0.56-2.33 1.81-7.56 1.81-7.56s-1.31 3.16-2.08 4.55c-1.29 2.3-8.31 11.38-8.31 11.38s16.85-24.52 18.63-32.03c2.18-9.17 2.04-17.6 0.66-25.09-2.48-13.46-8.83-25.06-19.57-34.5-5.35-4.71-15.18-10.08-23.01-13.99 1.47-4.57 3.67-10.93 5.55-15.03 9.97-21.76 21.36-43.72 26.44-64.52 2.57-10.49 3.27-26.99-4.68-45.93-7.01-16.69-27.88-44.9-32.73-52.74-1.05-1.71-2.22-4.12-3.21-6.35 19.21-21.42 20.71-54.24 2.15-77.46-20.68-25.87-58.46-30.08-84.33-9.4-52.88 42.26-50.64 101.38-16.67 156.32 2.05 3.31 10.43 15.78 16.76 25.14z" fill="#e2e2e2"/> <path d="m82.326 2525.3c-9.233 16.14-10.85 36.33-2.594 54.55 13.667 30.16 49.252 43.56 79.415 29.89 11.645-5.28 34.09-39.73 34.09-39.73s-3.055 7.56-4.475 10.06c24.427-42.93 28.538-73.94 68.768-106.47 101.39-81.99 158.19-99.63 333.36-202.31 119.57-70.09 205.76-121.42 306.67-158.67 31.067-11.47 46.98-46 35.513-77.06-11.466-31.07-45.997-46.98-77.064-35.52-107.09 39.53-198.91 93.34-325.8 167.72-183.23 107.4-242.09 126.78-348.14 212.53-54.286 43.9-64.652 82.5-97.614 140.44-0.567 0.99-1.347 2.7-2.136 4.57z" fill="#e2e2e2"/> <path d="m231.22 2031.5c-30.268 3.05-53.928 28.63-53.928 59.7 0 33.11 26.886 60 60 60 14.728 0 33.324-0.97 68.469-24.43 28.793-19.22 79.661-62.01 179.58-157.65 122.24-117 265.83-230.3 278.58-236.7 30.995-15.55 133.19-81.26 161.6-101.7 31.219-22.47 56.961-56.54 79.336-94.96 21.98-37.72 40.31-80.33 63.03-112.04 26.7 1.05 103.88-1.57 168.99-59.26 56.79-50.32 67.68-95.11 71.79-133.44 0.94-8.73 1.37-17.05 2.02-24.97 0.25-2.99 1.01-7.91 1.35-9.99 55.53-55.88 100.17-65.94 172.32-96.73 22.8-9.73 41.93-26.7 65.84-33.47 31.86-9.03 50.39-42.23 41.36-74.086-9.02-31.86-42.22-50.396-74.08-41.367-28.81 8.164-52.75 26.83-80.22 38.553-89.6 38.24-142.83 53.93-212.01 124.18-21.53 21.86-29.98 45.95-33.24 73.69-2.71 23.12 4.41 53.15-34.71 87.81-29.8 26.41-55.16 28.74-74.4 28.58-16.18-0.14-30.11-0.61-41.52 1.01-23.22 3.3-41.25 12.74-55.502 29.58-26.799 31.68-49.061 76.42-72.53 119.77-16.836 31.1-33.411 62.1-57.914 79.73-25.582 18.41-117.42 77.85-145.32 91.86-13.992 7.02-173.62 128.88-307.74 257.26-105.56 101.04-162.34 142.77-171.15 149.07z" fill="#e2e2e2"/> <path d="m551.66 2066.9c-8.186 22.13-13.606 43.04-23.581 64.02-2.586 5.44-9.347 40.03-9.347 40.03s18.715-23.31 21.236-25.26c14.725-11.4 39.04-10.79 53.027-23.31 31.62-28.3 72.017-42.78 108.35-64.63 12.835-7.72 80.674-53.81 80.674-53.81s-179.07 40.08-230.36 62.96z" fill="#d3d3d3"/> <path d="m547.84 2058.3c-2.305 1.03-4.098 2.94-4.973 5.31-8.085 21.86-13.402 42.53-23.255 63.25-2.733 5.74-10.081 42.25-10.081 42.25-0.828 4.23 1.34 8.48 5.251 10.3 3.912 1.81 8.558 0.73 11.259-2.63 0 0 17.313-21.89 19.667-23.72 6.483-5.02 15.177-7.15 23.69-9.65 11.048-3.24 21.858-6.93 29.85-14.08 31.179-27.91 71.102-42.04 106.93-63.59 12.903-7.76 81.111-54.09 81.111-54.09 3.723-2.53 5.123-7.35 3.335-11.48s-6.259-6.4-10.651-5.42c0 0-180.44 40.49-232.14 63.55zm-12.099 78.82c0.296-0.96 0.568-1.71 0.804-2.21 9.532-20.05 14.987-40.02 22.537-61.03v-0.01c36.054-14.97 121.12-36.36 175.71-49.38-16.41 11.01-32.648 21.8-38.271 25.18-36.844 22.16-77.715 36.99-109.78 65.69-5.996 5.36-14.335 7.63-22.624 10.06-10.174 2.98-20.349 6.04-28.378 11.7z" fill="#d3d3d3"/> <path d="m1826 1885c-6.08-23.12 130.27-38.83 139.33-34.79 9.54 4.26 29.62 157.03 39.97 166.4 2.91 2.64-6.23 12.95-7.6 15.01-22.52 33.78-47.23 68.22-64.74 105.05-26.79 56.34-44.78 89.13-59.73 148.79-6.05 24.16-8.31 73.43-15.31 97.29-1.28 4.4-18.78-15.62-22.07-27.15-8.05-28.19-14.88-56.67-24.03-84.53-7.05-21.46-17.62-42.55-21.58-64.88-11.07-62.46 31.4-258.7 35.76-321.19z" fill="#d3d3d3"/> <path d="m458.75 2985.3c3.432-9.35-3.86-25.18-4.752-34.92-2.457-26.79-10.544-74.39-22.987-96.8-5.143-9.26-12.812-16.24-18.417-25.06-6.128-9.65-8.76-32.12-14.143-37-4.372-3.96-7.433-42.87-7.96-49.2-1.096-13.15-3.53-26.24-4.419-39.38-1.685-24.87 0.543-52.36-6.188-76.65-2.498-9.01-7.335-17.45-10.311-26.38-5.373-16.12-7.177-30.49-27.11-34.08-3.969-0.72-11.209-2.98-15.178-1.2-9.906 4.45-16.207 55.83-16.207 66.04v29.84s-0.812-2.8-1.622-3.98c-3.718-5.42-4.773-13.07-6.775-19.23-4.37-13.43-32.944-55.44-51.127-43.23-7.05 4.74-3.832 48.15-3.832 56.49 0 5.24-0.917 10.44-1.326 15.65-0.011 0.14-1.942 9.16-2.797 8.09-5.859-7.34-6.05-15.3-9.136-23.61-5.483-14.75-12.444-34.71-24.849-44.26-4.046-3.11-21.264-3.11-26.278 0.64-22.438 16.77-33.401 106.71-37.868 132.6-10.954 63.49-5.531 127.41 17.975 188.04 3.259 8.4 4.839 18.21 9.432 25.99 10.373 17.57 24.554 6.63 31.088 15.51 24.587 33.43 58.983 71.68 98.718 87.52 19.624 7.82 34.541-0.44 40.224-20.42 0.633-2.23 2.704-11.62 4.565-12.47 3.556-1.61 26.657 6.64 33.298 6.64 16.038 0 17.632-10.25 25.935-17.77 1.116-1.02 15.98 3.33 18.417 3.71 13.113 2.03 32.856-14.93 32.856-28.11" fill="#e6e4cd"/> <path d="m1396.5 2511.6c-0.4 10.37 0.86 12.31 2.87 23.06 2.07 11.14 9.22 30.84 15.16 40.45 5.1 8.25 17.7 23.34 26.79 27.79 6.2 3.04 13.69 0.47 16.73-5.72 3.03-6.2 0.47-13.69-5.73-16.73-5.84-2.86-13.25-13.19-16.53-18.49-4.68-7.56-10.21-23.1-11.85-31.88-1.52-8.19-2.76-9.62-2.45-17.52 0.26-6.89-5.12-12.71-12.02-12.97-6.89-0.26-12.7 5.12-12.97 12.01z" fill="#cfccb2"/> <path d="m273.17 2951.8c7.103 10.49 15.717 21.92 23.89 31.62 4.279 5.08 14.098 16.71 17.538 22.36 6.004 9.87 16.034 20.59 6.666 41.02-2.875 6.28-0.118 13.7 6.153 16.58 6.271 2.87 13.697 0.12 16.573-6.16 14.636-31.92 1.345-49.03-8.037-64.44-3.902-6.41-14.918-19.7-19.773-25.46-7.633-9.06-15.677-19.75-22.311-29.54-3.868-5.71-11.647-7.21-17.359-3.34s-7.209 11.65-3.34 17.36z" fill="#cfccb2"/> <path d="m819.2 2346.5c5.091-11.62 21.284-24.45 33.344-27.4 5.646-1.38 23.592-0.48 24.053-1.7 5.961-15.72 2.238-46.03 20.525-53.38 10.676-4.29 21.455-0.53 30.47 5.78 0.448 0.32 12.182 12.57 14.104 10.77 1.395-1.31 0.098-17.03 1.635-22.1 3.477-11.47 19.095-18.5 29.088-23.01 10.551-4.76 27.79-4.84 38.78-1.81 2.14 0.59 15.72 6.28 16.88 5.22 2.16-2 3.84-7.98 5.28-10.66 10.77-19.97 10.21-47.6 35.77-53.71 19.39-4.64 42.37 15.76 56.78 26.4 2.55 1.88 5.76 6.49 8.69 7.37 3.38 1.01 21.79-25.32 25.44-29.01 18.41-18.67 41.86-14.42 63.46-5.67 5.43 2.2 12.21 3.3 15.36 8.84 2.66 4.66 6.59 52.91 8.06 61.88 4.55 27.73 7.9 53.55 5.92 81.48-0.35 4.98-0.74 21.59-3.78 25.72-1.57 2.14-16.1 4.84-19.01 5.44-20.8 4.31-41.72 6.83-61.83-1.36-6.91-2.81-12.34-13.6-15.74-14.62-0.55-0.16-0.8 0.21-1.13 0.57-5.12 5.53-10.35 11.58-17.76 14.16-16.46 5.75-35.06 5.63-51.88 10.66-1.9 0.57 7.23 13.5 8.19 14.84 6.8 9.54 11.85 21.57 1.39 30.03-14.23 11.51-50.2 33.6-68.38 34.46-10.1 0.47-19.46-0.88-28.957-3.97-1.484-0.49-14.13-6.1-14.859-5.44-11.841 10.73-32.108 23.18-47.849 26.75-7.384 1.67-16.88-9.12-18.511-8.39-6.353 2.83-11.392 9.36-16.998 13.37-6.855 4.91-16.405 6.56-24.426 8.61-6.965 1.79-13.599 5.85-17.126-2.6-9.715-23.29-16.167-58.68-23.546-83.86-2.58-8.81-4.777-17.97-7.052-26.86-0.655-2.56-2.52-17.5-2.52-11.22" fill="#e6e4cd"/> <path d="m272.49 2861c-1.572-0.78-3.598-1.81-5.077-2.65-7.958-4.53-16.993-8.56-26.928-7.51-7.365 0.79-17.335-2.19-26.068-5.49-8.528-3.22-15.97-6.72-18.033-8.68-8.877-8.42-15.272-24.85-20.308-42.43-8.151-28.46-11.907-60.3-11.31-72.46 0.338-6.89-4.982-12.76-11.872-13.09-6.891-0.34-12.76 4.98-13.098 11.87-0.663 13.5 3.188 48.94 12.247 80.57 6.439 22.48 15.783 42.9 27.134 53.67 3.078 2.92 13.684 9.14 26.407 13.94 12.517 4.73 26.987 8.08 37.544 6.96 3.848-0.41 7.151 1.72 10.302 3.47 4.039 2.23 7.84 4.53 11.38 5.94 5.389 2.16 10.535 2.64 15.381 1.28 4.727-1.32 9.649-4.38 13.925-11.31 1.433-2.33 2.707-5.75 3.315-10.23 0.829-6.11 0.572-15.31-0.526-26.02-3.259-31.8-13.606-78.51-14.907-87.91-1.508-10.9-6.908-46.93-8.133-58.32-1.82-16.93-5.782-80.89-5.782-85.85 0-6.9-5.601-12.5-12.5-12.5s-12.5 5.6-12.5 12.5c0 5.11 4.048 71.07 5.925 88.52 1.241 11.54 6.698 48.04 8.226 59.08 1.288 9.3 11.575 55.55 14.802 87.03 0.757 7.39 0.58 15.98 0.454 19.62z" fill="#cfccb2"/> <path d="m1295.1 1590.2c69.8-15.48 128.59-0.13 153.43 13.62 58.56 32.41 95.93 74.99 119.4 138.31 32.02 86.36 4.03 277.56-110.18 298.13-75.05 13.52-187.44-11.01-223.97-84.07" fill="#d3d3d3"/> <path d="m1299 1607.7c64.03-14.21 118.03-0.83 140.82 11.79 54.55 30.18 89.37 69.84 111.24 128.81 17.97 48.49 15.29 132.27-12.46 195.71-17.23 39.41-44.21 71.28-84.04 78.46-41.86 7.54-96.21 2.33-140.34-17.7-27.75-12.6-51.53-31.08-64.34-56.71-4.45-8.89-15.27-12.49-24.15-8.05-8.89 4.44-12.5 15.26-8.05 24.15 16.41 32.81 46.13 57.26 81.66 73.39 50.81 23.06 113.4 29.03 161.6 20.35 51.54-9.29 88.34-48.47 110.65-99.46 31.56-72.16 33.67-167.5 13.22-222.65-25.08-67.65-64.99-113.17-127.56-147.8-26.89-14.89-90.48-32.2-166.05-15.44-9.7 2.15-15.82 11.77-13.67 21.47s11.77 15.83 21.47 13.68z" fill="#d3d3d3"/> <path d="m1021.3 2672.5c-1.52-9.25 3.21 27.57 3.43 29.76 2.23 22.07 4.7 44.17 6.57 66.27 0.45 5.24-2.02 20.58 6.25 18.73 2.38-0.53 4.85-4.45 6.79-5.91 14.32-10.77 7.3-16.17 4.39-33.63-2.83-16.97-6.76-66.62-24-76.92" fill="#cfccb2"/> <path d="m390.14 3006.6c0.291 0.71 2.323 5.61 2.818 6.49 3.68 6.55 9.59 6.52 11.007 6.52 6.899 0 12.5-5.6 12.5-12.5 0-2.21-0.577-4.29-1.592-6.1-0.43-1.04-1.882-4.56-2.043-4.9-2.832-5.96-5.408-12.09-8.044-18.14-4.793-11.01-9.725-21.85-14.043-33.07-3.191-8.29-5.63-16.79-10.557-24.29-4.977-7.58-9.58-16.01-17.623-20.76-5.942-3.5-13.612-1.52-17.118 4.42-3.505 5.94-1.526 13.61 4.416 17.12 2.13 1.25 3.418 3.36 4.745 5.41 1.609 2.5 3.086 5.1 4.684 7.53 3.937 6 5.572 12.92 8.122 19.55 4.448 11.55 9.516 22.74 14.454 34.07 2.711 6.23 5.368 12.52 8.274 18.65z" fill="#cfccb2"/> <path d="m1951 1260c-2.09 24.15-12.02 47.38-23 69-11 21.67-24.75 44.1-43 61-31.5 29.17-127.5 79.5-146 114-15.65 29.19 23.79 61.83 35 93 12.83 35.67 42 121 42 121s4.92-91.07-4-125c-10.43-39.66-30.33-66.06-21-74 13.2-11.24 106.17-57.67 144-90 33.72-28.82 53.17-93 83-104s73.33 40.33 96 38c21.75-2.24 28.81-33.21 40-52 14.5-24.33 80.83-85.5 47-94s-246.67 4.5-250 43z" fill="#d3d3d3"/> </g> </g> <path d="m1221 1242-324-295-273-225-152-108 39 76 189 265 146 197 164 228 7 15 33 7 56-6 66-35 40-54 9-65z" fill="#ffd4a6"/> <clipPath id="e"> <path d="m1221 1242-324-295-273-225-152-108 39 76 189 265 146 197 164 228 7 15 33 7 56-6 66-35 40-54 9-65z"/> </clipPath> <g clip-path="url(#e)"> <g transform="matrix(1.0591 0 0 1.0716 -78.962 -27.259)"> <path d="m515.76 620.39c32.407 42.388 84.896 70.795 117.46 112.54 70.062 89.816 151.37 170.81 227.78 255.38 38.313 42.406 72.11 89.226 111.32 130.8 22.85 24.23 170.56 169.32 175.43 186.59 8.16 28.94-132.31 51.36-140.82 44.95-20.409-15.35-57.607-72.82-79.144-94.78-40.608-41.4-86.403-77.9-125.47-120.78-81.408-89.36-142.31-190.82-204.31-293.55-20.641-34.202-38.488-69.277-53.857-106.16-7.926-19.023-28.333-115.73-43.631-121.05" fill="#ffbd76"/> </g> </g> </g> <g transform="matrix(.85363 0 0 .83499 -57.199 163.46)"> <path d="m2350 975s156.59-96.873 332-124c229.7-35.523 367.63 1.122 472.92 44.7 260.41 107.78 356.29 395.95 369.11 549.28 18.51 221.2-10 518.68-120.22 758.22-216.15 469.72-702.32 497.39-702.32 497.39s113.49-120.1 78.03-380.79c-17.96-132.01-80.76-308.45-47.25-462.71 37.22-171.32 61.03-374.4 11.78-558.83-81.67-305.89-394.05-323.26-394.05-323.26z" fill="#d85690"/> <clipPath id="d"> <path d="m2350 975s156.59-96.873 332-124c229.7-35.523 367.63 1.122 472.92 44.7 260.41 107.78 356.29 395.95 369.11 549.28 18.51 221.2-10 518.68-120.22 758.22-216.15 469.72-702.32 497.39-702.32 497.39s113.49-120.1 78.03-380.79c-17.96-132.01-80.76-308.45-47.25-462.71 37.22-171.32 61.03-374.4 11.78-558.83-81.67-305.89-394.05-323.26-394.05-323.26z"/> </clipPath> <g clip-path="url(#d)"> <g transform="matrix(1.1715 0 0 1.1976 67.007 -195.76)"> <path d="m2928 1492c12.83 2.83-8.4-71.6-21-105-13.83-36.67-37.67-79.83-62-115-24.2-34.97-77.67-98-84-96s54.83 106.17 46 108-74.17-74.83-99-97c-15.32-13.68-51.33-45.17-50-36s35.78 62.71 58 91c28.67 36.5 78.67 86.33 114 128 33.74 39.78 85.17 119.17 98 122z" fill="#b02161"/> <path d="m1974 963.57c21.75-10.333 88.52-31.271 134.51-39.567 49.17-8.869 111.27-15.316 160.52-13.65 45.66 1.545 96.17 10.042 135 23.65 35.82 12.553 110.67 53.072 98 58s-131.81-23.694-174-28.433c-26.21-2.944-93.46-8.025-79.12 0 14.33 8.025 121.1 30.911 165.12 48.153 35.19 13.78 68.5 34.4 99 55.28 30.08 20.59 84 70 84 70s-130.03-70.67-198.68-94.34c-35.06-12.09-137.84-41.03-180.62-42.691-8.73-0.34 115.06 38.261 138.4 64.031 0 0-90.97-30.12-175.22-43.34-84.18-13.21-169.35-25.96-202.88-34.66-7.35-1.908-10.89-19.172-4.03-22.433z" fill="#b02161"/> <path d="m2483 891c38.67 6.5 79.77 15.461 117 31 40.33 16.833 88.5 41.5 125 70 36.25 28.31 69.5 65.67 94 101 23.36 33.69 40.83 77.83 53 111 10.36 28.24 24.67 89.17 20 88s-30.34-64.23-48-95c-22.67-39.5-81.17-137-88-142s52.67 113.33 47 112-56-90.67-81-120c-19.21-22.55-65.67-60.167-69-56s49.17 74.33 49 81-33.82-26.76-50-41c-16.67-14.67-31.83-38.667-50-47-17.9-8.21-56.17-13.333-59-3s51.67 60.17 42 65-90.83-29.33-100-36 46.67 7.83 45-4c-1.67-11.833-37-49.5-55-67-15.59-15.153-35.17-28.667-53-38-16.81-8.798-64.17-16.333-54-18s77.11 1.63 115 8z" fill="#ff79b5"/> <path d="m2313 1319c-24.17-13.67 27.5 95.67 34 143 6.4 46.59 6 106.67 5 141-0.64 21.97-15.33 68.67-11 65s31-62.83 37-87c4.66-18.77-3.67-71.5-1-58s17.67 95.67 17 139c-0.63 40.93-20.56 80.07-21 121-0.5 46.5 11.83 150 18 158s13.5-76.83 19-110c4.91-29.63 6.46-59.93 14-89 8.17-31.5 23.67-67 35-100 11.2-32.6 47.2-66.59 33-98-24.33-53.83-154.83-211.33-179-225z" fill="#b02161"/> <path d="m2329 1716c5.33 5.83-13.17 70.83-11 106s13.71 70.6 24 105c10.67 35.67 32.83 73.5 40 109 6.86 33.99 9.22 69.88 3 104-7.17 39.33-42.33 136-46 132s25.17-109.67 24-156c-1.06-41.95-20.17-83.83-31-122-10.22-36-26.33-72.5-34-107-7.28-32.77-17.17-71.5-12-100 4.94-27.22 37.67-76.83 43-71z" fill="#ff79b5"/> </g> </g> <path d="m2350 975s156.59-96.873 332-124c229.7-35.523 367.63 1.122 472.92 44.7 260.41 107.78 356.29 395.95 369.11 549.28 18.51 221.2-10 518.68-120.22 758.22-216.15 469.72-702.32 497.39-702.32 497.39s113.49-120.1 78.03-380.79c-17.96-132.01-80.76-308.45-47.25-462.71 37.22-171.32 61.03-374.4 11.78-558.83-81.67-305.89-394.05-323.26-394.05-323.26z" fill="none" stroke="#000" stroke-width="22.21px"/> </g> <g transform="matrix(.94418 0 0 .93323 74.555 25.439)"> <path d="m2159 1075-93.69-12.37-28.31-89.63-34-71-16-112 18-115 40-90 66-63 81-42 120-36 39 1-12 31-79 145-38 93-27 86-37 147-8 89 9 39z" fill="#f2f2f2"/> <clipPath id="c"> <path d="m2159 1075-93.69-12.37-28.31-89.63-34-71-16-112 18-115 40-90 66-63 81-42 120-36 39 1-12 31-79 145-38 93-27 86-37 147-8 89 9 39z"/> </clipPath> <g clip-path="url(#c)"> <g transform="matrix(1.0591 0 0 1.0716 -78.962 -27.259)"> <path d="m2058.2 992.72c-5.41-9.354-19.92-34.661-21.75-40.44-12.78-40.312-28.65-95.996-25.9-138.61 5.68-87.761 17.02-155.16 81.76-218.62 7.09-6.955 7.2-18.361 0.25-25.455s-18.36-7.207-25.45-0.253c-71.86 70.444-86.19 144.6-92.48 242.01-3.02 46.621 13.52 107.7 27.5 151.81 2.96 9.351 22.93 48.01 31.62 57.44 7.02 7.63 14.67 8 18.5 7.45 6.41-0.92 14.16-4.22 16.05-16.27 1.26-8.07-3.06-15.737-10.1-19.057zm-25.32 12.677c-0.06 0.27-0.11 0.53-0.15 0.81l0.15-0.81zm0.14-0.64-0.01 0.08 0.02-0.1-0.01 0.02z" fill="#e2e2e2"/> </g> </g> </g> <g transform="matrix(.85363 0 0 .83499 18.774 72.447)"> <path d="m2463.5 2476.1c-0.72 1.2-1.48 2.41-2.21 3.48-5.97 8.9-13.16 18.86-14.41 21.87-8.42 20.22-15.27 52.14-15.88 81.74-0.43 20.56 2.25 40.01 8.97 54.08 15.31 32.03 38.31 37.59 59.03 40.69 5.76 0.86 11.29 1.5 16.26 2.72 1.83 0.45 3.58 0.97 5.2 1.66-0.6 1.08-1.24 2.19-1.8 3.04-2.42 3.66-4.8 6.9-5.43 8.05-18.81 33.85-26.89 90.29-16.31 137.18 7.36 32.61 23.72 60.5 50.58 74.28 2.94 1.51 6.26 2.81 9.62 3.72-0.55 14.84-1.28 45.48 6.85 64.33 5.46 12.66 14.49 20.71 27.77 20.71 5.18 0 9.38-4.29 9.38-9.58 0-5.28-4.2-9.58-9.38-9.58-3.98 0-6.69-2.32-8.71-5.58-2.05-3.29-3.47-7.39-4.55-11.86-4.8-19.88-2.59-46.29-2.4-54.06 0.13-5.16-1.71-7.98-2.16-8.55-2.16-2.76-4.79-3.62-7.35-3.62-3.48 0-7.44-1.4-10.66-3.05-22.03-11.31-34.69-34.72-40.73-61.47-9.51-42.17-2.57-92.97 14.35-123.41 1.33-2.4 9.7-13.7 11.12-19.82 1.33-5.71-0.53-9.93-3.48-12.52-8.66-7.61-21.39-9.45-35.46-11.55-15.63-2.34-33.35-5.97-44.9-30.14-5.62-11.76-7.43-28.08-7.07-45.27 0.55-27.02 6.7-56.18 14.38-74.63 1.7-4.09 15.7-21.89 19.68-30.24 1.63-3.41 2.09-6.27 2.02-8.03-0.14-3.41-1.56-5.82-3.44-7.52-3.33-3.02-9.87-5.16-17.56-6.23-6.89-0.96-15.11-0.96-19.42-3.56-35.39-21.34-48.82-69.58-38.35-107.71 2.63-9.58 4.99-20.16 10.46-28.76 9.14-14.39 17.69-24.61 21.89-33.04 4.28-8.59 4.89-16.05 1.44-23.38-2.93-6.2-9.71-12.88-22.93-20.03-8.46-4.57-14.99-12.66-19.92-22.6-8.17-16.46-11.85-37.88-11.34-59.04 0.51-21.06 5.16-41.92 14.19-57.33 5.38-9.19 12.3-16.39 21.04-19.91 4.81-1.94 7.17-7.51 5.28-12.43-1.9-4.92-7.35-7.34-12.16-5.4-12.41 5.01-22.59 14.84-30.24 27.9-10.52 17.95-16.25 42.16-16.85 66.7-0.58 24.45 3.93 49.16 13.36 68.18 6.81 13.72 16.19 24.56 27.88 30.87 8.13 4.39 13 7.6 14.8 11.42 0.56 1.17 0.32 2.36-0.11 3.65-0.65 1.95-1.75 3.99-3.13 6.23-4.49 7.34-11.53 16.14-18.92 27.77-6.49 10.22-9.66 22.64-12.78 34.02-12.61 45.9 4.26 103.7 46.87 129.4 5.1 3.07 13.89 4.49 22.38 5.52 1.79 0.22 3.56 0.44 5.24 0.69z"/> </g> <g transform="matrix(.83676 -.16345 .16854 .8189 -421.94 393.22)"> <path d="m3442.4 2911.2c94.86-68.41 137.47-315.53 219.53-273.7 82.05 41.83 245.37 276.14 272.8 524.69 27.77 251.56-113.23 813.66-334.71 1026.2-326.34 313.15-630.55-7.16-938.98 399.15-136.92 180.37-11.37 354.67-11.37 354.67-244.28-35.46-396.9-246.22-400.16-512.36-2.75-223.56 124.67-753.97 323.48-1007.1 198.82-253.1 687.93-380.68 869.41-511.56z" fill="#eea21e"/> <clipPath id="b"> <path d="m3442.4 2911.2c94.86-68.41 137.47-315.53 219.53-273.7 82.05 41.83 245.37 276.14 272.8 524.69 27.77 251.56-113.23 813.66-334.71 1026.2-326.34 313.15-630.55-7.16-938.98 399.15-136.92 180.37-11.37 354.67-11.37 354.67-244.28-35.46-396.9-246.22-400.16-512.36-2.75-223.56 124.67-753.97 323.48-1007.1 198.82-253.1 687.93-380.68 869.41-511.56z"/> </clipPath> <g clip-path="url(#b)"> <g transform="matrix(1.1489 .22931 -.23645 1.174 577.74 -364.86)" fill="#ffd283"> <path d="m3332 2298c15.51 33.25 42.42 61.59 52 97 11.5 42.5 15.17 113 17 158 1.52 37.36-4.28 74.65-6 112-2.5 54.33-0.83 163.5-9 214-5.19 32.11-34.5 103-40 89s6-123.83 7-173c0.83-40.66-0.36-81.34-1-122-0.83-52.83 2.33-139.5-4-195-5.37-47.07-23.72-91.75-34-138-11.33-51-37-161-34-168s34.67 88.83 52 126z"/> <path d="m2295 3763c8.13 21.86 19.31 43.71 36 60 20.67 20.17 57.2 42.97 88 61 36.17 21.17 112.33 70.17 129 66s-26.13-59.29-29-91c-3.5-38.67 0.83-103 8-141 5.79-30.72 20.54-59.29 35-87 18-34.5 43.83-92.33 73-120 27.06-25.67 67.53-31.76 102-46 48-19.83 124-50.17 186-73 61.53-22.66 142-41.33 186-64 31.45-16.2 59.82-41.65 78-72 21.67-36.17 56-138.33 52-145s-56.17 76.67-76 105c-14.9 21.28-36.33 65.33-43 65s-0.73-44.96 3-67c3.83-22.67 25.67-70.5 20-69s-37.33 53-54 78c-15.8 23.7-28 52.83-46 72-17.22 18.33-39.88 31.03-62 43-26.5 14.33-65.67 31.17-97 43-29.69 11.21-62 17.17-91 28-28.38 10.6-55.3 24.75-83 37-31.67 14-79.02 19.89-107 47-37.33 36.17-96.33 113-117 170-19.56 53.94 4.17 153.67-7 172s-51.67-61.67-60-62 17.83 59.17 10 60-40.34-34.52-57-55c-18.17-22.33-33.33-54.67-52-79-18.25-23.79-55.83-77.67-60-67s23.17 99.17 35 131z"/> </g> </g> <path d="m3442.4 2911.2c94.86-68.41 137.47-315.53 219.53-273.7 82.05 41.83 245.37 276.14 272.8 524.69 27.77 251.56-113.23 813.66-334.71 1026.2-326.34 313.15-630.55-7.16-938.98 399.15-136.92 180.37-11.37 354.67-11.37 354.67-244.28-35.46-396.9-246.22-400.16-512.36-2.75-223.56 124.67-753.97 323.48-1007.1 198.82-253.1 687.93-380.68 869.41-511.56z" fill="none" stroke="#000" stroke-width="24.55px"/> </g> <path d="m3170 2134c43.94-66.11 55.51 149.35 72 227 18.33 86.33 41.62 193.24 38 291-3.83 103.5-53.17 313.83-61 330s13.5-173.83 14-233c0.35-40.83 0.05-82.69-11-122-11.67-41.5-46.17-136.83-59-127s-16.61 123.73-18 186c-1.5 67 15.83 149.67 9 216-6.45 62.58-27.67 133.83-50 182-19.07 41.14-67.67 103.33-84 107s-0.67-82.33-14-85-43.28 46.71-66 69c-26 25.5-61 59.83-90 84-26.58 22.15-53.27 45.08-84 61-41.5 21.5-116.83 44.83-165 68-42.92 20.64-94.5 46.5-124 71-23.76 19.73-44.58 46.29-53 76-12 42.33-19 178-19 178s-70.57-54.83-83-95c-13.67-44.17-15-124.83 1-170 15.43-43.57 62.23-68.4 95-101 96.67-96.17 365.64-283.48 485-476 125.33-202.17 210.5-652 267-737z" fill="#cf7300"/> <g transform="matrix(.85363 0 0 .83499 -189.51 177.66)"> <path d="m2740.9 1101.1c-43.41-34.99-90.19-86.01-144.86-114.12-72.31-37.186-198-103.67-289-109-89.28-5.232-190.67 30.333-257 77-66.33 46.67-114.94 124.69-141 203-26.33 79.12-60.8 238.05-94.28 307.68-41.02 85.27-130.72 125.32-130.72 125.32s141.37-2.25 205-29c163.43-68.71 330.32-223.55 461.6-298.24 279.47-159.01 505.89-66.84 505.89-66.84s-76.65-64.39-115.63-95.8z" fill="#6d3ebd"/> <clipPath id="a"> <path d="m2740.9 1101.1c-43.41-34.99-90.19-86.01-144.86-114.12-72.31-37.186-198-103.67-289-109-89.28-5.232-190.67 30.333-257 77-66.33 46.67-114.94 124.69-141 203-26.33 79.12-60.8 238.05-94.28 307.68-41.02 85.27-130.72 125.32-130.72 125.32s141.37-2.25 205-29c163.43-68.71 330.32-223.55 461.6-298.24 279.47-159.01 505.89-66.84 505.89-66.84s-76.65-64.39-115.63-95.8z"/> </clipPath> <g clip-path="url(#a)"> <g transform="matrix(1.1715 0 0 1.1976 222.01 -212.76)"> <path d="m1833 937c-11.91-5-117.33 1.634-156 11-28.65 6.939-53.33 27.196-76 45.196-22.67 18.004-42.89 39.444-60 62.804-21.33 29.13-71.67 108.83-68 112s67-69.73 90-93c15.68-15.86 29.94-33.53 48-46.6 18.83-13.64 42.09-32.638 65-35.204s77.91 7.504 72.44 19.804-77.88 32.33-105.29 54c-25.18 19.91-62.79 74.33-59.15 76s51.2-47.97 81-66c31.83-19.27 74.83-39.67 110-49.6 32.56-9.2 105.43-1.77 101-10-4.43-8.24-120.39-26.001-127.56-39.4s96.47-36 84.56-41z" fill="#ad7dff"/> <path d="m1248 1506.1c2 8.84 103.25-56.5 139.34-101.12 40.17-49.65 89.56-167.43 101.66-196.76 4.54-11.01-19.6 13.55-29.08 20.76-16.94 12.89-58.48 36.08-72.58 56.58-12.75 18.54 0.02 47.4-12 66.42-23.22 36.76-129.34 145.29-127.34 154.12z" fill="#ad7dff"/> <path d="m1660 1299c3.67-15.17-50 45.17-72 62-18.94 14.5-38.35 28.98-60 39-22.33 10.33-70.67 33.17-74 23s55.5-78.17 54-84-45.17 35.45-63 49c-14.48 11-29.72 21-44 32.27-15.42 12.16-31.48 28.24-48.5 40.73-19.5 14.31-76.25 32.96-68.5 45.12 7.75 12.17 76.26 35.31 115 27.88 47-9.02 123.5-42.83 167-82s90.33-137.83 94-153z" fill="#35018e"/> <path d="m2145 1067c-41.67-39.68-154.37-80.993-215.03-96.826-48.05-12.541-146.81-4.507-148.97 1.826s101.51 25.174 136 36.17c24.45 7.8 80.47 25.46 70.97 29.83s-88.05-8.1-127.97-3.6c-38.32 4.32-77.4 12.71-111.56 30.6-36.14 18.93-105.29 76.33-105.29 83s68.9-32.38 105.29-43c37.14-10.83 80.64-19.67 117.56-22 34.69-2.19 99.63 2.33 103.97 8 4.33 5.67-57.14 14.67-77.97 26-18.45 10.04-59.99 38.33-47 42s88.3-18.83 124.97-20c31.95-1.02 64.66 2.99 95.03 13 35.01 11.54 101.67 70.4 115 56.24 13.33-14.17 0.13-107.79-35-141.24z" fill="#35018e"/> </g> </g> <path d="m2740.9 1101.1c-43.41-34.99-90.19-86.01-144.86-114.12-72.31-37.186-198-103.67-289-109-89.28-5.232-190.67 30.333-257 77-66.33 46.67-114.94 124.69-141 203-26.33 79.12-60.8 238.05-94.28 307.68-41.02 85.27-130.72 125.32-130.72 125.32s141.37-2.25 205-29c163.43-68.71 330.32-223.55 461.6-298.24 279.47-159.01 505.89-66.84 505.89-66.84s-76.65-64.39-115.63-95.8z" fill="none" stroke="#000" stroke-width="17.27px"/> <path d="m2544.6 959.15s360.17 83.442 522.62 156.27c161.86 72.56 335.9 175.49 452.09 280.7 415.09 375.88 430.7 698.05 441.73 1057.2 17.95 584.86-172.99 1087.6-769.55 1366-286.27 133.63-521.15 175.05-628.5 436.75-60.39 147.23 0.82 475.94 0.82 475.94s-322.54-187.54-422.12-509.34c-88.59-286.24-34.38-554.29 181.96-796.96 147.26-165.18 405.93-392.53 512.12-567.62 213.41-351.84 583.13-1026.8-59.72-1695.1-95.34-99.11-231.45-203.85-231.45-203.85z" fill="#dd7263"/> <clipPath id="i"> <path d="m2544.6 959.15s360.17 83.442 522.62 156.27c161.86 72.56 335.9 175.49 452.09 280.7 415.09 375.88 430.7 698.05 441.73 1057.2 17.95 584.86-172.99 1087.6-769.55 1366-286.27 133.63-521.15 175.05-628.5 436.75-60.39 147.23 0.82 475.94 0.82 475.94s-322.54-187.54-422.12-509.34c-88.59-286.24-34.38-554.29 181.96-796.96 147.26-165.18 405.93-392.53 512.12-567.62 213.41-351.84 583.13-1026.8-59.72-1695.1-95.34-99.11-231.45-203.85-231.45-203.85z"/> </clipPath> <g clip-path="url(#i)"> <g transform="matrix(1.1715 0 -8.1287e-18 1.1976 222.01 -212.76)" fill="#ff8b7b"> <path d="m3023 2638c-21.59 49.01-93 131-93 131s117.5-231 94-372c-2.63-15.79-13.67 166.17-144 352-35.27 50.29-89.5 117.5-127 153-27.82 26.33-64.03 42.31-98 60-52.5 27.33-161.17 72.33-217 104-42.34 24.01-81.88 53.37-118 86-44.83 40.5-114.33 111.5-151 157-28.23 35.03-79.5 114.17-69 116s89.2-68.55 132-105c48.33-41.17 96.52-106.87 158-142 93.33-53.33 402-178 402-178s-159.17 159.5-250 212c-55.39 32.02-80.17 91.33-119 136-11.95 13.75 174.83-107.5 228-144 32.41-22.25 61.17-50 91-75 29.54-24.76 61.17-51.33 88-75 24.77-21.85 52.67-40.97 73-67 23.17-29.67 43.74-74.16 66-111 23.17-38.33 57-75.3 73-119 27.83-76 82.35-220.96 94-337 12.17-121.17-2.17-426.33-21-390-11.16 21.53 0.43 206.76-19.95 364.28-14.01 108.33-44.54 181.27-72.05 243.72z"/> <path d="m1694 3275c-12.33 39.17-20 87.17-26 129-5.79 40.39-12.5 82.67-10 122 2.47 38.83 13.66 76.79 25 114 11.83 38.83 30.17 81.5 46 119 15.14 35.86 25.53 74.95 49 106 27.33 36.17 104.33 110.33 115 111s-33-73.67-51-107c-17.28-31.99-41.67-62.83-57-93-14.3-28.14-26.09-57.71-35-88-9.17-31.17-26.83-98-20-99s46.17 66.5 61 93c11.67 20.85 18.57 44.04 28 66 12.17 28.33 39 104.67 45 104s-4.5-78.17-9-108c-3.64-24.14-9.71-48.04-18-71-8.67-24-20.13-50.02-34-73-16-26.5-54.22-51.53-62-86-8.83-39.17-2.67-104 9-149 11.34-43.72 33.25-85.36 61-121 28.17-36.17 72.67-67.17 108-96 33.42-27.27 97-66.67 104-77s-41.72 8.61-62 15c-24.33 7.67-58.83 17.5-84 31-24.56 13.17-49.68 28.17-67 50-24.33 30.67-74.33 142.17-79 134s49.17-161 51-183c1.79-21.53-29.44 32.15-40 51-14.67 26.17-36.35 69-48 106z"/> </g> <g transform="matrix(1.1715 0 0 1.1976 222.01 -212.76)" fill="#c54735"> <path d="m2312 2528c-28.32 53-61.35 103.99-100 150-44.67 53.17-121 125.17-168 169-36.02 33.59-79.47 58.88-114 94-38.83 39.5-115 129.67-119 143s65.04-39.63 95-63c31.83-24.83 62.17-60.17 96-86 33.73-25.76 72.17-46.33 107-69 34.1-22.19 109.33-85.17 102-67s-152.67 172.5-146 176 137.67-113 186-155c35.78-31.09 72.74-61.36 104-97 40.5-46.17 127-149.83 139-180 8.26-20.75-62.15 20.8-67-1-5-22.5 50.33-140.17 37-134s-107.67 167-117 171 45.65-96.22 61-147c17.83-59 62-223 46-207s-101.67 227.5-142 303z"/> <path d="m2179 999c52.67 18.83 107.59 41.4 156 72 109.17 69 337.17 178.83 499 342 55.98 56.44 114.17 129.33 148 187 28.38 48.37 55 159 55 159s-127.67-173.17-176-231c-34.77-41.6-81-89.67-114-116-24.47-19.53-99.16-69.39-84-42 16.33 29.5 137.78 135.01 182 219 48 91.17 101.38 213.19 106 328 6 149 22.5 330.33-70 566-48.77 124.26-245.33 295.17-263 302s118.56-167.03 157-261c40.5-99 81.7-254.89 86-333 20.83-378.5-87-547-87-547 17.37 130.22 20.18 162.02 12 206-12.33-34.71-64.1-148.47-132.32-270.14-76.06-135.63-98.56-213.09-183.68-269.86-49.37-32.93 83.17 171.17 108 251 22.94 73.73 37.5 155.83 41 228 3.33 68.58-7.33 154.83-20 205-9.07 35.92-49.13 132.4-56 96-9-47.67 17.67-277 2-382-13.08-87.67-51.62-171.26-96-248-48-83-129.5-190.67-192-250-51.12-48.54-131-71.5-183-106-45.51-30.19-119.83-76.67-129-101-9.17-24.333 45.13-44.507 74-45 39-0.667 108.16 22.462 160 41z"/> </g> </g> <path d="m2544.6 959.15s360.17 83.442 522.62 156.27c161.86 72.56 335.9 175.49 452.09 280.7 415.09 375.88 430.7 698.05 441.73 1057.2 17.95 584.86-172.99 1087.6-769.55 1366-286.27 133.63-521.15 175.05-628.5 436.75-60.39 147.23 0.82 475.94 0.82 475.94s-322.54-187.54-422.12-509.34c-88.59-286.24-34.38-554.29 181.96-796.96 147.26-165.18 405.93-392.53 512.12-567.62 213.41-351.84 583.13-1026.8-59.72-1695.1-95.34-99.11-231.45-203.85-231.45-203.85z" fill="none" stroke="#000" stroke-width="22.21px"/> </g> <g transform="matrix(.83546 .17139 -.17522 .81721 -232 -80.134)"> <path d="m3013.3 11.783c-1.27 9.375-5 23.996-9.83 41.199-14.79 52.672-40.35 127.96-46.66 156.34-17.96 80.849-40.23 202.14-40.57 313.21-0.23 75.375 9.76 146.08 37.34 196.95 2.52 4.64 8.23 6.356 12.76 3.831 4.52-2.526 6.15-8.344 3.64-12.984-26.25-48.417-35.2-115.82-34.98-187.56 0.34-109.6 22.38-229.27 40.11-309.05 6.27-28.196 31.71-102.98 46.4-155.31 6.64-23.671 11.01-43.031 11.01-52.255 0 0.077-0.01 0.495-0.01 0.495s0.01-3.656-0.17-4.488c-0.6-2.78-2.04-4.366-2.99-5.231-3.7-3.359-10-5.117-17.61-4.381-11.42 1.106-26.71 7.304-31.76 9.576-109.68 49.315-232.35 129.56-267.12 242.03-41.6 134.54-23.59 250.1 48.96 372.24 6.12 10.306 31.12 47.027 56.09 72.713 11.45 11.773 23.02 21.205 32.86 25.493 4.78 2.081 10.27-0.172 12.27-5.028s-0.26-10.488-5.04-12.569c-11.03-4.806-24.24-17.816-36.88-32.24-20.07-22.908-38.28-49.776-43.28-58.186-69.49-116.98-86.93-227.64-47.09-356.51 33.3-107.69 151.9-183.18 256.92-230.4 3.62-1.628 13.5-5.759 22.26-7.48 1.02-0.2 2.22-0.32 3.37-0.388z"/> </g> <g transform="matrix(.85363 0 0 .83499 -357.68 474.91)"> <path d="m1592.3 941.58c-3.12 1.557-5.27 4.829-5.27 8.611 0 3.921 1.62 6.12 2.81 7.371 2.27 2.403 5.15 3.543 8.78 2.833 1.46-0.284 5.2-1.992 8.52-6.68 5.19-7.342 14.63-25.409 16.12-29.425 8.61-23.236 15.55-50.279 19.15-74.844 7.62-52.083 5.3-101.27 1.18-153.68-0.79-10.006-4.03-21.131-6.97-32.152-2.47-9.286-4.8-18.47-4.14-26.613 0.42-5.27-3.41-9.902-8.57-10.338-5.15-0.435-9.69 3.49-10.11 8.76-0.82 10.145 1.66 21.654 4.74 33.223 2.61 9.834 5.66 19.726 6.37 28.656 4 50.912 6.37 98.702-1.04 149.3-3.41 23.267-9.98 48.881-18.14 70.89-1.12 3.021-10.16 18.518-13.43 24.081z"/> <path d="m1442 483.31c3.57 27.354 1.24 113.71-10.38 172.09-2.89 14.496-6.32 27.219-10.47 36.712-2.25 5.177-4.58 9.297-7.33 11.789-3.87 3.508-4.23 9.568-0.8 13.525s9.36 4.322 13.23 0.814c9.79-8.87 18.13-30.888 23.74-59.017 12.05-60.53 14.29-150.08 10.59-178.45-0.68-5.242-5.4-8.93-10.53-8.23-5.12 0.699-8.73 5.522-8.05 10.764z"/> <path d="m1280.7 521.03c-0.88 1.454-1.38 3.164-1.38 4.992 0 4.971 2.79 7.092 4.36 8.108 1.49 0.965 8.14 4.283 12.81-2.754 0.28-0.422 1.77-3.691 2.25-4.537 2.85-5.011 4.3-11.154 5.92-16.963 3.57-12.819 7.26-24.998 8.39-38.36 3.27-38.548 4.96-78.866-2.36-116.87-1-5.188-5.93-8.571-11-7.55-5.08 1.021-8.39 6.063-7.39 11.251 6.98 36.26 5.19 74.734 2.08 111.52-1.03 12.117-4.5 23.131-7.75 34.757-1.19 4.277-1.99 8.893-4.09 12.583-0.34 0.587-1.44 2.952-1.84 3.826zm14.46-1.938c1.66 1.621 2.75 3.865 2.89 6.364-0.16-3.383-1.72-5.277-2.89-6.364zm-5.91-2.632c1.66 0.099 3.21 0.642 4.53 1.517-1.35-0.915-2.85-1.444-4.53-1.517zm-0.15-8e-3 0.03 1e-3 -0.01-1e-3h-0.02z"/> <path d="m1203.7 392.9c0.47-0.895 3.15-5.972 4.85-9.146 2.04-3.788 3.66-7.602 4.23-10.712 5.4-29.524 9.74-59.171 7.77-89.856-0.34-5.277-4.8-9.279-9.96-8.933-5.17 0.347-9.08 4.912-8.74 10.188 1.86 29.059-2.38 57.121-7.5 85.08-0.68 3.74-4.48 8.823-6.51 12.814-1.93 3.774-2.82 7.19-2.82 9.475 0 5.288 4.2 9.581 9.37 9.581 4.81 0 8.78-3.715 9.31-8.491z"/> <path d="m1109.8 270.46c-1.78 1.742-2.89 4.196-2.89 6.912 0 5.288 4.2 9.581 9.37 9.581 1.95 0 4.07-0.536 6.14-2.123 1.48-1.135 3.81-4.043 5.48-8.902 4.34-12.672 8.84-45.431 6.65-55.816-1.1-5.169-6.09-8.459-11.14-7.342-5.06 1.116-8.28 6.218-7.19 11.387 1.21 5.68-0.52 19.579-2.63 31.189-1.08 5.92-3.11 12.854-3.79 15.114z"/> <path d="m1343.1 1831.5c-1.56 0.99-3.41 2.11-5 2.92-8.01 4.12-17.22 7.82-18.45 8.47-26.47 13.92-51.73 29.3-76.52 46.04-27.42 18.51-121.23 74.32-180.58 114.2-26.88 18.05-46.8 33.37-51.92 40.82-2.97 4.33-1.94 10.31 2.29 13.34 4.23 3.04 10.08 1.99 13.06-2.34 4.56-6.65 22.85-19.68 46.86-35.81 59.37-39.89 153.19-95.71 180.62-114.22 24.22-16.35 48.9-31.39 74.76-44.99 1.45-0.77 13.83-5.73 22.48-10.63 5.27-2.99 9.3-6.33 10.99-8.83 2.66-3.93 2.67-7.73 1.45-10.91-0.94-2.46-2.92-5.35-7.55-7.02-4.88-1.76-10.24 0.86-11.96 5.85-0.35 1.03-0.53 2.08-0.53 3.11z"/> <path d="m1072.1 1897.1c3.18-1.54 5.38-4.84 5.38-8.67 0-5.29-4.2-9.58-9.38-9.58-2.51 0-5.83 0.92-9.04 4.27-2.49 2.6-5.75 7.93-9.18 15.44-16.48 36.04-42.73 128.37-44.27 150.28-0.37 5.27 3.52 9.86 8.67 10.24 5.16 0.38 9.65-3.59 10.03-8.87 1.47-20.93 26.8-109.1 42.55-143.54 1.78-3.89 4.31-8.08 5.24-9.57z"/> <path d="m2620.6 1662.2c-5.96 68.83-5.66 95.77 8.49 205.94 0.67 5.24 5.38 8.94 10.51 8.25s8.74-5.5 8.07-10.75c-13.86-107.92-14.24-134.31-8.39-201.75 0.45-5.26-3.36-9.92-8.51-10.39-5.16-0.46-9.71 3.43-10.17 8.7z"/> </g> <g transform="matrix(.85261 -.040848 .04176 .83399 -368.32 491.28)"> <path d="m1465.6 2725c0.84-0.4 1.8-0.84 2.66-1.19 7.87-3.19 19.37-6.67 23.36-7.99 3.14-1.03 10.8-4.07 17.46-5.36 0.62-0.12 1.36-0.21 2.08-0.27 3.29 15.46 7.89 57.52 8.95 65.22 0.6 4.38 4.46 34.24 5.9 40.47 1.28 5.58 5 7.35 5.74 7.68 2.69 1.19 5.25 1.06 7.69-0.09 0.75-0.35 5.59-2.51 5.59-9.98 0-1.79-0.48-3.46-1.32-4.89-1.62-9.39-4.53-32.19-5.04-35.91-1.05-7.59-5.54-47.8-8.89-65.04-0.89-4.53-1.86-7.81-2.57-9.34-0.84-1.8-1.85-2.93-2.62-3.63-3-2.72-8.24-4.35-14.72-3.69-8.33 0.85-19.74 5.2-23.96 6.6-4.2 1.38-16.26 5.06-24.53 8.41-4.8 1.95-8.54 4.07-10.21 5.58-0.84 0.77-2.34 2.38-3.18 5.44-0.57 2.07-1.23 7.1-1.82 14.16-1.78 21.46-3.79 64.33-7.18 92.61-1.26 10.54-2.41 18.82-4.18 22.24-2.43 4.67-0.7 10.47 3.87 12.95 4.57 2.47 10.25 0.69 12.68-3.99 2.57-4.94 5.03-17.63 6.78-33.7 3.58-32.74 5.56-80.81 7.46-96.29z"/> <path d="m1509.9 2700.9c-0.75 5.06 2.56 9.87 7.53 10.82 5.08 0.97 9.99-2.46 10.95-7.66 0.61-3.32-0.11-8.23-1.46-13.32-0.46-1.77-1.03-4.51-1.37-6.22 2.2-1.29 6.41-3.7 10.35-5.52 18.33-8.44 47.19-18.58 53.48-20.78 3.1-1.09 12.51-5.18 21.11-8.24 2.96-1.05 6.77-2.05 8.93-2.59 4.12 4.72 7.17 12.87 10.01 21.77 5.85 18.36 9.47 40.22 11.93 51.27 1.84 8.24 3.37 16.96 4.32 25.35 0.33 2.88 4.12 17.49 4.89 20.17 1.19 4.17 3.74 5.54 3.87 5.63 3.95 2.71 7.41 1.94 10.18 0.18 1.2-0.76 4.44-2.82 4.44-8.16 0-1.08-0.18-2.13-0.51-3.1-0.19-0.69-3.98-14.6-4.25-16.97-1.03-9.07-2.68-18.49-4.66-27.39-2.99-13.42-7.74-42.11-15.76-62.52-4.08-10.38-9.22-18.74-14.91-23.3-1.96-1.57-6.21-3.14-12.14-2.06-9.5 1.74-28.72 10.16-33.49 11.83-7.46 2.62-45.44 16.02-62.79 25.21-6.34 3.36-10.39 6.89-11.79 9.14-1.91 3.08-2.7 7.47-1.95 12.56 0.46 3.11 1.49 6.66 2.33 9.97 0.34 1.36 0.71 3.58 0.76 3.93z"/> <path d="m1726.2 2627.3c0.22 0.38 0.47 0.84 0.61 1.2 0.59 1.43 1.03 3.06 1.4 4.72 1.22 5.45 1.7 11.26 2.35 14.62 4.39 22.4 12.19 55.19 12.19 77.76 0 5.29 4.19 9.57 9.37 9.56 5.17-0.01 9.37-4.31 9.37-9.6 0-23.66-7.95-58.05-12.55-81.53-1.01-5.19-1.84-15.68-4.84-22.99-2.12-5.15-5.3-9.03-9.19-11.13-3.21-1.74-7.77-2.34-12.93-1.46-6.99 1.2-15.72 5.2-19.63 6.55-15.79 5.4-31.95 10.83-47.43 17.02-6.46 2.59-13.34 4.28-21.66 8.33-4.67 2.28-6.67 8-4.45 12.77 2.21 4.78 7.81 6.8 12.48 4.53 7.84-3.82 14.35-5.35 20.43-7.79 15.19-6.08 31.06-11.39 46.55-16.7 2.56-0.88 7.36-3.06 12.23-4.63 1.74-0.56 4.39-1.02 5.7-1.23z"/> <path d="m1747.9 2630.4c0.43-0.66 4.49-6.88 9.16-11.58 14.38-14.49 41.83-32.96 71.99-22.71 0.94 1.9 4.29 8.87 6.22 15.05 7.88 25.12 15.09 65.91 15.09 73.89 0 5.28 4.2 9.57 9.37 9.56 5.17-0.02 9.37-4.32 9.37-9.61 0-9.87-9.91-66.21-19.78-90.51-2.19-5.37-4.52-9.42-6.63-11.78-1.9-2.14-3.91-3.41-5.75-4.09-38.77-14.35-74.6 8-93.03 26.57-9.18 9.25-13.89 18.14-14.41 21.7-0.77 5.23 2.76 10.11 7.87 10.88 4.88 0.74 9.46-2.52 10.53-7.37z"/> <path d="m1937.2 2537.8c3.22 2.68 5.91 6.56 8.28 10.87 5.22 9.48 8.61 21.15 10.5 30.48 1.51 7.43 10.02 49.6 10.02 52.02 0 5.29 4.2 9.57 9.37 9.56 5.18-0.01 9.38-4.31 9.38-9.6 0-2.6-8.8-47.93-10.41-55.9-2.23-11.02-6.35-24.78-12.51-35.98-4.68-8.5-10.58-15.53-17.45-19.64-0.75-0.45-3.41-1.79-7.83-1.14-9.36 1.4-50.99 13.09-76.51 31.58-4.77 3.45-9.73 12.1-13.05 23.71-6.55 22.87-8.36 57.44-3.14 70.6 1.94 4.9 7.41 7.25 12.21 5.25 4.79-1.99 7.1-7.59 5.16-12.49-3.66-9.23-2.11-31.31 1.61-49.22 1.48-7.11 3.34-13.58 5.58-18.28 0.83-1.75 1.47-3.24 2.44-3.95 21.31-15.43 55.18-25.59 66.35-27.87z"/> <path d="m1953.7 2536.8 18.94-18.64c14.46-6.85 31.74-11.04 39-12.62 7.35 8.73 12.57 23.94 19 38.59 8.88 20.23 19.75 39.36 35.85 46.79 4.71 2.18 10.27 0.03 12.41-4.79s0.05-10.49-4.66-12.67c-12.47-5.76-19.62-21.54-26.5-37.21-8.5-19.38-16.26-39.02-26.76-48.25-0.38-0.33-2.93-2.81-7.97-2.21-4.63 0.55-27.46 4.98-48.94 15.33-0.84 0.41-2.75 1.68-5.08 3.77-5.66 5.07-16.76 16.42-19.03 18.9-1.82 1.98-2.31 3.57-2.39 3.81-1.09 3.14-0.4 5.47 0.19 6.91 1.24 3.03 3.46 5.11 7.08 5.73 1.03 0.18 3.34 0.58 6.29-1.19 1.02-0.6 1.88-1.37 2.57-2.25zm1.76-8.53c0.38 1.42 0.42 2.89 0.16 4.3 0.35-1.74 0.16-3.17-0.16-4.3zm-6.58-6.73c2.67 0.69 4.5 2.27 5.67 4.48l-0.04-0.08c-1.29-2.25-3.34-3.77-5.63-4.4zm-1.22-0.25c-1.08-0.17-3.05-0.35-5.52 0.98 1.75-0.92 3.68-1.23 5.52-0.98zm0.92 0.17 0.13 0.04-0.08-0.02-0.05-0.02z"/> </g> <g transform="matrix(.89493 -.051641 .05027 .83354 -546.02 429.65)"> <path d="m2549.6 2523-0.9 0.24c-10.39 2.51-28.81 5.05-51.84 8.02-79.11 10.21-210.99 25.5-265.7 58.67-34.31 20.8-50.42 42.14-66.75 62.64-15.01 18.86-30.23 36.95-62.8 52.72-4.45 2.16-53.15 24.52-53.15 24.52-0.95 0.44-1.83 1.05-2.58 1.81-31.24 31.24-66.29 46.11-104.94 45.7-2.73-0.03-5.32 1.28-7.04 3.55-21.26 28.14-52.34 40.89-92.65 39.48-2.76-0.1-5.41 1.19-7.18 3.47-33.49 43.36-58.78 52.86-80.72 37.62-2.6-1.81-5.89-2.03-8.7-0.6-2.79 1.44-4.7 4.33-5.04 7.64-5.72 56.97-64.65 73.07-103.67 42.54-3.6-2.82-8.58-2.35-11.68 1.1-24.63 27.39-53 32.09-82.32 30.63-1.01-0.06-2.03 0.08-3 0.4 0 0-59.29 19.26-89.57 28.02-26.49 7.66-212.56 73.03-346.24 100.6-33.85 6.98-64.29 11.53-87.77 12-14.37 0.28-25.936-0.85-33.663-4.31-7.646-3.43-14.272-11.89-20.201-21.62-10.107-16.59-17.682-37.23-21.908-49.82-1.668-4.97-6.785-7.54-11.419-5.74-4.635 1.81-7.043 7.31-5.375 12.28 4.567 13.6 12.834 35.87 23.757 53.8 8.093 13.28 17.793 24.1 28.23 28.78 9.393 4.21 23.384 6.13 40.859 5.78 24.29-0.48 55.79-5.12 90.81-12.34 134.17-27.67 320.93-93.23 347.52-100.91 27.64-8 79.33-24.7 88.64-27.71 31.62 1.35 62.06-4.23 89.1-30.92 46.33 30.41 109.5 12.14 123.44-47.18 24.86 10.16 54.47 0.11 89.84-44.26 42.91 0.52 76.26-13.91 99.99-43.13 41.02-0.63 78.44-16.72 111.89-49.7 8.08-3.71 48.02-22.06 52.05-24.02 35.75-17.32 52.56-37.04 69.05-57.75 15.18-19.06 30.04-39.05 61.93-58.39 53.32-32.32 181.97-46.38 259.05-56.32 23.83-3.08 42.88-5.76 53.63-8.36 6.52-1.58 10.72-3.64 12.53-5.23 0.25-0.22 3.79-2.62 3.23-8.47-0.04-0.39-0.31-2.45-0.78-5.9-4.38-31.87-26.94-192.43-26.94-228.15 0-68.8-4.52-243.29 10.96-394.9 0.54-5.26-3-9.98-7.9-10.54-4.89-0.57-9.3 3.25-9.84 8.5-15.56 152.41-11.07 327.82-11.07 396.99 0 35.41 21.77 192.01 26.83 228.77z"/> </g> <g transform="matrix(1.1715 0 0 .83499 -658.23 387.24)"> <path d="m931.5 2990.7-0.294 0.24c-6.727 5.15-35.865 22.12-44.175 25.69-4.825-2.35-13.577-10.57-15.867-12.07-2.802-1.83-4.881-0.99-5.554-0.69-17.096 7.76-38.139 17.63-53.97 27.1-3.253 1.94-4.703 4.79-5.5 7.63-0.466 1.65-0.681 3.41-0.678 5.25 1e-3 0.2 7e-3 0.44 0.019 0.69-13.093 4.82-47.494 19.08-60.839 25.79-3.07 1.55-5.208 2.85-6.123 3.61-1.307 1.09-2.021 2.26-2.406 3-1.819 3.51-1.578 6.77-0.853 9.33 11.281 39.84 37.371 71.44 58.661 93.78 12.957 13.6 24.006 23.32 27.501 29.47 4.718 8.29 6.087 13.32 9.201 22.66 7.66 22.98 35.013 67 63.802 101.4 19.52 23.33 39.736 42.14 54.81 47.84 3.639 1.37 7.39-1.65 8.372-6.76 0.981-5.1-1.177-10.37-4.816-11.74-13.68-5.18-31.796-22.75-49.51-43.92-27.062-32.34-53.085-73.33-60.286-94.94-3.653-10.96-5.364-16.77-10.898-26.5-3.844-6.75-15.746-17.9-29.995-32.85-17.983-18.88-40.018-44.56-51.46-77.05 14.185-6.98 48.484-21.09 59.679-25.1 3.54-1.26 5.486-3.38 6.699-5.36 1.663-2.72 2.311-5.71 2.358-8.89 4e-3 -0.31-5e-3 -0.69-0.024-1.1 14.329-8.34 32.408-16.88 47.761-23.87 4.066 3.3 14.225 11.31 18.258 12.52 0.619 0.19 1.948 0.43 3.848-0.2 1.869-0.61 6.106-2.68 11.387-5.53 11.557-6.25 28.503-16.29 35.356-21.07 3.254-2.28 5.016-4.57 5.413-5.33 2.234-4.26 1.583-10.26-1.453-13.39-2.584-2.67-6.067-2.4-8.424 0.36z"/> </g> <g transform="matrix(.85363 0 0 .83499 -357.68 474.91)"> <path d="m935.97 2924.2c3.388 12.17 8.905 50.28 10.712 62.75 1.471 10.15 2.939 21.65-1.524 31.26-5.215 11.24-10.602 17.63-17.552 17.89-7.468 0.28-15.012-5.83-23.19-15.63-12.555-15.04-19.966-46.82-24.193-65.82-2.247-10.11-3.005-20.44-6.007-33.79-1.158-5.16-6.191-8.38-11.232-7.19-5.041 1.18-8.193 6.32-7.035 11.48 2.998 13.34 3.753 23.66 5.998 33.75 4.775 21.46 14.027 57.01 28.209 74.01 12.941 15.51 26.317 22.78 38.135 22.34 12.343-0.46 24.54-8.87 33.801-28.82 6.045-13.03 5.124-28.54 3.131-42.29-1.878-12.95-7.705-52.54-11.225-65.18-1.416-5.09-6.604-8.04-11.579-6.6-4.975 1.45-7.865 6.76-6.449 11.84z"/> <path d="m890.5 3029.9c0.066 7.97-5.683 15.06-12.701 19.29-6.791 4.09-15.201 5.74-21.713 1.26-28.223-19.4-45.327-50.86-63.083-79.23-2.785-4.45-16.714-24.8-21.78-32.01-3.018-4.3-8.878-5.28-13.079-2.2-4.202 3.09-5.163 9.08-2.146 13.37 4.933 7.02 18.504 26.83 21.216 31.16 19.106 30.53 38.046 63.94 68.414 84.81 12.485 8.58 28.668 7.19 41.686-0.65 12.79-7.71 22.049-21.43 21.929-35.97-0.044-5.28-4.278-9.54-9.451-9.49-5.172 0.04-9.336 4.37-9.292 9.66z"/> <path d="m816.85 3041.4c3.547 6.4 3.503 15.84 1.12 24.28-2.22 7.85-6.462 15.23-13.328 17.54-3.238 1.08-16.982 2.65-26.466-2.07-4.651-2.31-10.264-0.33-12.527 4.43-2.263 4.75-0.324 10.49 4.328 12.81 14.516 7.21 35.56 4.69 40.515 3.03 12.385-4.16 21.483-16.25 25.486-30.43 3.839-13.59 2.891-28.74-2.823-39.04-2.551-4.6-8.275-6.22-12.774-3.61-4.5 2.61-6.082 8.46-3.531 13.06z"/> </g> <g transform="matrix(.89493 -.051641 .05027 .83354 -546.02 429.65)"> <path d="m2797.8 2665.9-0.03 0.02c-27.69 22.61-170.54 136.92-248.95 201.59-42.48 35.03-215.5 112.53-268.71 136.27-95.5 42.61-203.73 39.8-309.66 50.36-163.71 16.31-282.29 68.91-441.37 101.86-126.76 26.26-196.59 55.86-314.19 109.01-9.22 4.17-17.81 13.25-26.81 24.21-11.26 13.71-23.52 30.62-41.29 40.13-55.79 29.84-174.74 48.73-215.65 48.73-4.926 0-8.935 4.29-8.948 9.58s3.976 9.58 8.901 9.58c42.427 0 165.75-19.8 223.62-50.75 16.8-8.99 29.52-23.5 40.65-37.15 9.39-11.5 17.21-22.51 26.41-26.67 116.27-52.56 185.3-81.89 310.64-107.86 158.47-32.82 276.55-85.34 439.63-101.59 107.74-10.74 217.75-8.41 314.88-51.75 54.03-24.11 229.6-103.2 272.74-138.77 78.39-64.66 221.2-178.94 248.88-201.54 3.18-2.6 5.01-4.17 5.34-4.5 4.24-4.22 2.8-8.77 2.62-9.49-25.66-106.29-83.49-489.38-92.82-593.9-0.83-9.25-5.89-108.17-10.43-212.78-0.22-5.28-4.41-9.35-9.33-9.09s-8.72 4.75-8.5 10.03c4.56 105.07 9.66 204.43 10.49 213.72 9.2 103.12 65.42 476.05 91.88 590.75z"/> </g> <g transform="matrix(.85363 0 0 .83499 -286.83 803.06)"> <path d="m2109.8 241.04c-0.86 0.327-7.33 2.756-14.99 5.495-39.49 14.107-140.43 50.483-209.5 96.909-55.35 37.201-120.19 104.2-120.19 104.2-2.43 2.513-3.31 6.19-2.29 9.566 15.19 50.24-20.69 102.76-67.88 136.48-28.85 20.619-62.27 34.256-92.17 35.658-18.65 0.875-35.87-3.035-49.27-13.563-3.46-2.722-8.31-2.634-11.68 0.212 0 0-27.36 23.113-33.11 28.081-45.9 39.643-82.14 122.31-108.72 187.96-16.74 41.371-29.16 75.703-38.29 85.66-43.77 47.682-284.27 246.54-310.89 273.94-97.103 99.97-270.34 263.43-312.32 302.26-78.309 72.42-177.86 207.3-212.32 268.71-7.311 13.03-9.644 20.83-9.604 24.48 0.058 5.21 2.421 8.17 5.232 9.97 2.143 1.37 5.183 2.27 9.139 1.44 2.729-0.58 6.757-2.4 11.467-5.25 8.026-4.87 19.039-12.98 29.181-18.87-19.194 31.71-56.36 93.23-64.504 107.78-1.831 3.27-2.543 5.42-2.636 5.88-1.037 5.08 1.513 7.82 2.843 9.06 3.764 3.53 9.599 3.33 13.121-0.45 0 0 75.224-81.18 105.04-96.8 54.435-28.52 144.58-83.35 203.16-101.86 1.507-0.47 2.925-0.9 4.256-1.27-3.438 3.75-7.793 8-12.835 12.63-38.864 35.65-117.06 91.77-147.68 112.61-24.355 16.58-113.92 63.24-148.77 244.02-13.663 70.87-7.833 160.5-9.796 204.32-0.236 5.28 3.767 9.76 8.933 10.01 5.167 0.24 9.554-3.85 9.791-9.14 1.935-43.2-4.011-131.6 9.462-201.48 33.068-171.53 117.66-216.05 140.76-231.78 36.409-24.78 138.71-98.67 166.47-131.1 5.831-6.81 8.681-12.7 9.144-16.48 0.56-4.58-0.857-8.13-3.577-10.81-1.856-1.84-4.694-3.48-8.992-3.9-4.358-0.42-11.779 0.61-22.71 4.07-59.417 18.77-150.96 74.18-206.17 103.1-13.367 7.01-35.542 26.54-56.505 46.57 15.835-26.28 31.67-52.41 36.877-61 1.054-1.74 1.68-2.78 1.794-2.97 4.215-7.04-1.826-12.25-1.868-12.29-2.956-2.6-6.732-4.01-11.291-3.98-4.12 0.03-9.235 1.41-14.791 3.97-8.443 3.88-18.389 10.55-27.231 16.48 35.128-61.46 131.3-191.29 207.17-261.46 42.083-38.92 215.72-202.77 313.05-302.97 26.65-27.43 267.44-226.59 311.26-274.33 9.79-10.677 23.99-47.079 41.94-91.445 25.48-62.948 59.49-142.64 103.5-180.65 4.1-3.541 19.24-16.351 27.49-23.333 15.72 9.985 34.78 14.072 55.32 13.108 33.07-1.551 70.15-16.294 102.06-39.094 52.32-37.385 89.93-96.248 76.58-152.18 14.45-14.594 67.25-66.789 113.33-97.763 67.7-45.5 166.69-81.005 205.39-94.831 11.4-4.071 18.21-6.938 19.04-7.588 4.12-3.203 4.92-9.219 1.79-13.427-2.86-3.84-8.01-4.855-12.02-2.569z"/> <path d="m2250.8 703.2c-1.3 1.101-9.63 8.127-19.97 16.413-42.65 34.172-136.7 108.11-174.76 145.99-7.22 7.195-12.54 13.241-15.42 17.599-1.97 2.984-3.03 5.573-3.47 7.54-0.42 1.937-0.46 4.545 1.02 7.563 1.21 2.455 5.09 6.913 11.32 12.25 23.63 20.212 86.25 62.659 98.89 79.734 52.85 71.376 84.74 190.1 69.17 277.78-0.92 5.2 2.46 10.19 7.55 11.13 5.09 0.95 9.97-2.51 10.9-7.71 16.39-92.39-16.98-217.55-72.67-292.76-6.07-8.197-22.77-22.083-41.74-36.67-24.8-19.071-53.59-39.62-64.19-49.855l0.34-0.448c3.26-4.2 8.43-9.619 14.99-15.959 46.29-44.731 158.76-131.74 185.5-153.97 4.52-3.755 7.03-6.358 7.53-7.093 1.6-2.364 1.72-4.407 1.72-5.58 0-5.287-4.2-9.58-9.37-9.58-2.97 0-5.62 1.416-7.34 3.626z"/> <path d="m779.39 2154.1c-1.69-9-3.802-17.19-6.47-24.22-7.516-19.77-19.495-31.13-36.175-31.13-23.031 0-29.344 15.51-34.264 36.16-6.189 25.97-4.408 51.11-4.327 77.44-1.548-5.27-3.154-10.38-4.816-15.26-7.901-23.24-17.253-41.8-27.569-52.13-8.924-8.93-18.761-12.46-29.154-10.22-4.168 0.89-8.072 3.56-11.089 8.61-3.785 6.33-6.413 18.25-7.388 34.11-0.709 11.54-0.69 25.41-0.135 40.69-3.917-13.37-8.013-25.49-12.25-35.69-5.236-12.6-10.807-22.44-16.381-28.61-5.179-5.73-10.691-8.7-16.019-9.32-25.358-2.95-41.804 15.07-50.481 45.65-16.888 59.52-4.925 169.19-4.148 207.79 0.361 17.93 6.098 66.9 6.098 66.9 0.524 4.45 3.999 7.93 8.364 8.38 0 0 43.292 4.38 66.692 0.73 24.649-3.84 34.693-8.69 41.831-12.89 5.615-3.31 8.848-6.39 18.944-7.92 14.805-2.23 46.605-8.67 60.054-11.44 0.625 0.78 1.312 1.55 2.057 2.27 3.831 3.72 8.889 5.99 14.448 5.06 10.882-1.82 27.065-9.29 38.912-18.91 9.073-7.36 15.434-16.15 16.904-24.27 0.448-2.48-1.929-51.44-3.602-103.97-0.182-5.73-0.356-11.5-0.513-17.25l1e-3 -0.17-0.019-0.45c-1.23-44.66-1.559-88.23 1.969-102.45 33.933-136.78 164.21-196.96 286.4-242.36 57.35-21.31 221.38-81.82 221.38-81.82 2.5-0.92 4.49-2.88 5.5-5.39 6.72-16.8 14.47-27.72 24.6-32.37 9.72-4.46 21.19-2.64 34.83 3.78 3.03 1.42 6.57 1.09 9.3-0.86 2.73-1.96 4.23-5.26 3.95-8.65-1.93-23.35-1.39-40.79 1.98-52.41 1.54-5.29 3.38-9.14 6.51-10.93 3.92-2.24 8.95-0.68 15.34 2.52 9.29 4.67 20.29 13.36 33.11 25.84 3.14 3.06 7.92 3.51 11.56 1.1 3.64-2.42 5.18-7.07 3.73-11.25-9.35-26.88 9.14-45.65 31.18-52.92 11.7-3.87 24.55-4.65 35.54-1.57 9.75 2.72 18.01 8.57 21.78 18.47 1.68 4.4 6.25 6.89 10.76 5.87 4.52-1.02 7.62-5.25 7.33-9.97-1.64-25.92 0.33-46.05 5.41-60.47 4.18-11.85 10.29-19.45 18.59-22 6.73-2.07 14.53-0.81 23.11 3.05 15.44 6.94 32.73 22.03 50.71 44.69 2.08 2.63 5.36 3.93 8.63 3.45s6.04-2.69 7.31-5.81c12.08-29.77 28.4-47.34 51.21-50.58 16.35-2.33 35.58 1.19 58.22 17.67 2.18 1.59 4.92 2.15 7.53 1.54 0 0 10.03-2.35 20-4.31 31.06-6.1 91.81-8.73 91.81-8.73 1.85-0.09 3.64-0.73 5.14-1.85 17.64-13.24 31.95-19.01 45.98-17.8 14.34 1.24 28.02 9.5 44.17 22.51 1.82 1.47 4.11 2.2 6.43 2.04l52.94-3.63c1.19-0.08 2.36-0.39 3.43-0.92 19.59-9.62 42.62-13.47 70.71-9.08 37.21 12.05 60.89-0.7 78.84-16.67 6.64-1.79 26.28-7.13 30.98-9.24 44.92-20.18 93.26-66.48 129.72-122.74 36.48-56.29 61.01-122.45 59.13-181.75-0.17-5.28-4.51-9.43-9.68-9.26s-9.23 4.6-9.06 9.89c1.77 55.69-21.75 117.66-56.01 170.53-34.29 52.91-79.4 96.81-121.64 115.78-5.17 2.33-30.3 8.82-30.3 8.82-1.47 0.38-2.82 1.12-3.94 2.15-14.16 13.01-32.89 23.98-62.99 14.02-0.47-0.15-0.95-0.27-1.43-0.35-32.02-5.15-58.33-0.79-80.78 9.82l-47.62 3.26c-18.46-14.44-34.72-22.84-51.32-24.27-17.16-1.48-35.02 4.24-56.33 19.73-12.54 0.62-63.78 3.43-91.72 8.93-6.3 1.24-12.64 2.62-16.59 3.52-26.31-18.08-48.97-21.33-68.2-18.59-24.98 3.55-44.85 19.59-59.62 48.36-16.97-19.2-33.4-32.05-48.11-38.67-13.36-6.01-25.59-7.08-36.07-3.86-10.79 3.32-20.03 11.2-26.68 24.17-6.19 12.07-10.18 29.04-11.03 51.03-16.86-10.94-40.74-12.45-62.05-5.42-23.95 7.91-43.89 25.87-46.55 50.82-9.74-7.68-18.35-12.8-25.75-15.47-10.41-3.75-19.08-3.08-26.01 0.88-6.63 3.79-12.07 10.95-15.33 22.21-3.07 10.58-4.35 25.41-3.61 44.54-13.64-3.89-25.64-3.27-36.16 1.56-12.81 5.88-23.83 18.38-32.62 38.63-25.02 9.23-165.42 61.04-217.59 80.42-120.9 44.93-247.94 105.45-291.46 232.88zm-143.65 242.91c-7.473-48.22-20.366-122.14-36.183-175.16-6.261-20.98-12.886-38.6-19.93-49.6-1.9-2.97-3.776-5.39-5.726-7.09-0.917-0.79-1.732-1.48-2.667-1.59-16.393-1.91-24.75 12.18-30.359 31.95-16.421 57.87-4.166 164.52-3.41 202.05 0.263 13.07 3.488 43.1 5.084 57.3 12.678 1.04 38.559 2.65 54.503 0.17 25.006-3.9 32.328-8.7 38.843-12.72 1.914-1.18 3.776-2.3 5.846-3.32-1.246-8.29-3.434-23.17-6.001-41.99zm79.202 26.36c-3.017-32.28-15.21-149.11-39.308-219.99-5.702-16.78-11.989-30.88-19.135-40.27-4.68-6.15-9.327-10.36-14.876-9.8-0.419 0.8-1.232 2.45-1.645 3.79-1.628 5.29-2.586 12.66-3.132 21.56-3.238 52.69 9.039 154.65 17.38 215.46 2.677 17.18 4.669 31.12 5.862 39.75 14.521-2.32 41.344-7.73 54.854-10.5zm55.256-138.02-4e-3 -0.05c-2.736-41-1.938-95.59-10.173-132.69-2.452-11.04-5.624-20.42-10.258-26.96-3.351-4.74-7.494-7.74-13.017-7.74-3.575 0-6.234 0.65-8.179 2.24-2.127 1.74-3.373 4.33-4.479 7.26-1.364 3.61-2.364 7.71-3.395 12.03-5.973 25.06-3.787 49.33-3.787 74.79 0 25.86 6.057 52.68 9.249 78.41 4.733 38.16 7.64 119.73 8.167 135.46l1.293 1.78c8.431-1.82 20.107-7.64 28.856-14.74 5.001-4.06 9.317-8.27 10.127-12.75 0.43-2.38-2.297-49.39-3.904-99.86-0.182-5.7-0.35-11.45-0.496-17.18z"/> </g> <g transform="matrix(.85363 0 0 .83499 -357.68 474.91)"> <path d="m3011.8 1518.1c-4.08 2.65-13.25 6.2-24.63 10.5-33.82 12.77-86.01 29.13-101.21 35.24-91.16 36.65-148.23 55.69-242.56 82.97-50.43 14.58-99.82 19.6-148.63 40.76-4.77 2.06-6.99 7.69-4.97 12.56s7.52 7.14 12.28 5.08c48.07-20.84 96.76-25.6 146.42-39.96 95.01-27.48 152.49-46.67 244.32-83.58 15.14-6.08 67.15-22.37 100.85-35.1 16.03-6.05 28.17-11.75 31.92-15.15 1.23-1.12 2.51-2.79 3.46-5.19 0.92-2.32 1.67-5.97 2.03-10.6 1.54-20.03-3.1-63.45-4.92-72.28-13.75-67.04-14.49-138.03-39-202.65-1.87-4.93-7.3-7.38-12.13-5.47-4.82 1.91-7.22 7.47-5.35 12.4 24.14 63.64 24.6 133.62 38.14 199.65 1.47 7.2 4.94 39.04 4.84 59.37-0.03 4.34-0.6 9.39-0.86 11.45z"/> </g> <g transform="matrix(1.1028 0 0 .97942 -531.34 490.07)"> <path d="m1303.4 1999.9c-1.48 1.15-7.8 5.98-13.38 8.95-8.02 4.29-17.54 8.33-24.75 10.06-1.51 0.36-3.42 0.55-4.67 0.64-0.75-2.04-2.03-5.64-2.99-9.01-8.56-29.94-22.39-99.1-26.74-114.66-1.2-4.3-5.28-6.69-9.1-5.34-3.82 1.36-5.94 5.95-4.74 10.25 4.35 15.57 18.2 84.79 26.77 114.76 1.66 5.83 3.2 10.32 4.42 12.93 1.09 2.33 2.26 3.79 3.14 4.59 2.3 2.08 6.75 3.5 12.72 2.64 8.44-1.21 21.47-6.39 32.16-12.1 8.82-4.71 16.02-9.99 18.61-13.48 1.96-2.64 2.55-5.23 2.55-7.23 0-4.51-3.25-8.17-7.26-8.17-3.06 0-5.68 2.15-6.74 5.17z"/> <path d="m1320.5 2005.1c-0.73-2.42-1.71-5.81-2.63-9.21-9.15-33.95-29.12-116.99-30.51-127.57-0.58-4.46-4.27-7.54-8.23-6.89-3.96 0.66-6.7 4.82-6.12 9.28 1.59 12.12 27.08 117.79 33.94 140.47 1.48 4.89 3.28 7.4 3.75 7.84 0.79 0.74 2.46 1.85 4.95 2.24 3.17 0.49 9.67 0.12 11.44-0.28 21.71-4.88 34.43-13.42 41.47-23.84 6.98-10.32 8.8-22.76 7.36-36.78-1.85-18.07-9.33-39.08-15.42-60.97-3.79-13.65-13.81-52.47-15.77-66.63-0.61-4.46-4.32-7.51-8.28-6.82-3.95 0.69-6.67 4.87-6.05 9.32 2.02 14.67 12.33 54.88 16.26 69 4.87 17.55 10.77 34.47 13.62 49.67 2.41 12.85 2.82 24.31-3.27 33.32-5.49 8.13-15.81 13.9-32.76 17.71-0.52 0.12-2.21 0.15-3.75 0.14z"/> <path d="m1413 1798.1c0.27 0.72 2.52 6.65 4.92 13.52 12.08 34.52 40.23 119.2 46.55 140.18l0.3 1.02c-2.93 4.76-7.97 9.3-14.03 13.5-11.95 8.26-27.93 14.77-42.69 17.07-7.77 1.21-15.19 1.27-21.41-0.38-4.95-1.32-9.08-3.66-11.43-7.9-2.12-3.82-6.6-4.99-9.99-2.6-3.4 2.39-4.44 7.43-2.32 11.25 3.49 6.3 8.84 10.79 15.59 13.54 8.63 3.52 19.76 4.1 31.55 2.27 16.7-2.61 34.78-9.98 48.29-19.33 9.84-6.81 17.27-14.81 20.76-22.64 0.34-0.76 0.93-2.21 0.75-4.49-0.05-0.57-0.53-2.89-1.63-6.56-6.35-21.08-34.65-106.21-46.8-140.92-3.49-9.98-6.08-16.21-6.56-16.89-2.52-3.51-7.09-4.06-10.2-1.23-2.87 2.6-3.51 7.15-1.65 10.59z"/> <path d="m1521.8 1877.2c-0.34 0.83-1.2 1.6-2.18 2.57-1.89 1.89-4.39 3.85-7.27 5.8-14.15 9.56-37.31 19.18-49.18 17.1-3.96-0.7-7.67 2.35-8.29 6.81-0.61 4.45 2.1 8.63 6.05 9.33 14.14 2.48 42.04-7.84 58.89-19.24 8.54-5.77 14.21-12.28 15.72-17.11 0.94-2.99 1.06-10.08-0.09-19.63-3.77-31.03-18.29-94.26-20.95-106.25-0.97-4.37-4.91-7.04-8.8-5.94-3.88 1.09-6.25 5.52-5.28 9.9 2.3 10.35 13.58 59.38 18.85 91.98 1.3 8.06 2.23 15.07 2.53 20.14 0.1 1.79 0.01 4.12 0 4.54z"/> </g> <g transform="matrix(.85363 0 0 .83499 -286.83 803.06)"> <path d="m1785.8 1843.4c-12.35 3.15-39.94 8.38-63.17 6.42-7.88-0.67-15.24-2.13-21.08-5.07-4.38-2.21-7.83-5.24-9.28-9.82-1.58-5.03-6.87-7.8-11.79-6.18s-7.63 7.03-6.05 12.06c4.32 13.69 16.25 22.07 32.19 25.87 30.48 7.26 76.35-2.35 88.34-5.94 4.16-1.25 6.31-3 6.76-3.46 2.36-2.42 2.77-4.96 2.77-6.83 0-14.59 0.68-29.37-0.01-43.94-2.34-49.48-7.23-102.78-7.9-151.79-0.08-5.28-4.33-9.51-9.51-9.44-5.17 0.07-9.31 4.43-9.24 9.72 0.68 49.21 5.58 102.74 7.93 152.43 0.56 11.93 0.17 23.99 0.04 35.97z"/> <path d="m1990.8 1648.8 0.03 0.29c0.48 6.23 2.04 38.04 2.04 50.44 0 0.46 3.85 55.76 2.86 73.93-1.52 0.43-3.5 0.93-5.21 1.21-8.39 1.37-19.97 1.98-31.43 2-13.68 0.03-30.84-2.12-36.18-2.84-0.66-2.08-1.71-5.53-2.41-8.61-3.8-16.81-7.52-43.91-8.11-54.17-1.32-22.81-5.96-45.35-5.22-68.25 0.18-5.29-3.88-9.72-9.05-9.9-5.17-0.17-9.51 3.97-9.68 9.26-0.77 23.5 3.88 46.62 5.24 70.02 0.72 12.48 5.78 48.35 10.36 64.55 1.83 6.45 4.35 10.58 5.96 12.05 1.64 1.49 5.55 3.46 11.45 4.56 8.54 1.59 23.02 2.52 37.67 2.49 14.75-0.03 29.67-1.04 38.97-3.12 5.86-1.31 10.03-3.38 12.18-5.33 0.99-0.9 2.28-2.42 3.07-4.96 0.59-1.84 1.1-5.95 1.21-11.56 0.42-21.38-2.93-70.9-2.93-71.33 0-12.78-1.61-45.55-2.11-51.97-0.7-8.91-9.15-9.91-9.46-9.91-5.18 0-9.38 4.3-9.38 9.59 0 0.53 0.05 1.05 0.13 1.56z"/> <path d="m2142.9 1726.6c-5.66 1.89-26.18 8.4-40.37 8.87-5.77 0.19-11.15-0.12-15.3-1.44-0.85-0.27-1.63-0.58-2.32-0.96-0.37-0.21-0.83-0.25-0.93-0.62-2.38-9.28-13.52-44.24-19.22-68.89-2.06-8.88-3.68-16.11-3.11-19.43 0.88-5.21-2.54-10.18-7.63-11.08-5.1-0.91-9.95 2.59-10.84 7.8-0.79 4.61 0.49 14.78 3.34 27.11 5.73 24.82 16.94 60.01 19.33 69.35 1.53 5.94 5.57 10.56 11.92 13.52 6.27 2.91 15.39 4.12 25.37 3.79 15.67-0.52 33.62-4.56 43.94-8.66 6.97-2.77 11.14-6.52 12.47-8.93 1.11-2.01 2.01-4.95 2.26-8.77 0.34-5.3-0.49-13.26-2.2-22.49-5.18-28.08-18.1-69.22-21.23-77.67-1.83-4.95-7.25-7.45-12.09-5.57-4.83 1.87-7.28 7.4-5.44 12.35 3 8.1 15.38 47.53 20.34 74.44 1.2 6.48 1.59 14.03 1.71 17.28z"/> <path d="m2203.2 1700.4-9.64 4.24c-0.78-0.25-2.08-0.69-2.97-1.08-3-1.33-6.25-3.09-7.54-4.3-3.93-3.69-6.86-10.75-9.35-18.54-4.27-13.35-6.62-29.03-6.62-38.19 0-5.29-4.2-9.58-9.37-9.58s-9.37 4.29-9.37 9.58c0 10.59 2.61 28.71 7.54 44.15 3.65 11.4 8.74 21.3 14.51 26.71 2.21 2.07 7.6 5.48 12.77 7.76 4.13 1.83 8.19 2.85 10.75 2.85 1.68 0 5.98-1.06 10.58-2.96 5.85-2.41 12.36-5.98 13.84-7.32 0.93-0.84 3.45-3.97 3.61-9.91 0.42-15.81-7.62-86.09-9.3-92.94-1.26-5.13-6.35-8.25-11.37-6.96-5.02 1.28-8.07 6.49-6.81 11.62 1.5 6.12 8.33 65.75 8.74 84.87z"/> </g> <g transform="matrix(.85211 -.049854 .050966 .8335 -353.9 900.72)"> <path d="m1733.3 1239.2c1.47 83.45 25.44 161.38 83.49 214.84 57.63 53.07 149.29 82.4 287.48 67.52 5.15-0.56 8.9-5.28 8.37-10.53-0.53-5.26-5.14-9.08-10.28-8.53-131.09 14.12-218.33-12.37-273-62.71-54.24-49.95-75.95-123.03-77.32-200.98-0.09-5.28-4.36-9.49-9.53-9.38-5.18 0.11-9.3 4.49-9.21 9.77z"/> </g> <g transform="matrix(.85184 -.054039 .055246 .83324 -349.74 909.55)"> <path d="m1981.9 948.23c-247.62-117.7-351.66 277.73-178.83 452.9 33.76 34.22 71.43 62.89 119.68 71.54 201.81 36.18 267.46-228.32 193.54-371.25-30.67-59.31-53.92-114.94-134.39-153.19z"/> <path d="m1985.8 939.54c-52.06-24.746-98.12-27.617-136.98-15.377-58.18 18.323-100.69 70.875-122.95 137.63-36.4 109.17-18.45 255.98 70.52 346.16 35.12 35.59 74.45 65.16 124.64 74.16 106.03 19.01 176.43-40.73 210.47-124.23 33.44-82.04 31.16-187.18-6.99-260.95-31.58-61.07-55.86-118.01-138.71-157.39zm-7.95 17.378c78.1 37.124 100.31 91.432 130.08 149 35.77 69.15 37.62 167.72 6.27 244.63-30.76 75.43-94.09 129.86-189.88 112.68-46.3-8.3-82.31-36.07-114.71-68.91-83.87-85-100.31-223.49-66-326.4 20.18-60.5 57.94-108.84 110.68-125.45 35.07-11.047 76.58-7.888 123.56 14.445v1e-3z"/> </g> <g transform="matrix(.85363 0 0 .83499 -357.68 474.91)"> <path d="m1048 167.98c42.02 28.415 132.92 101.84 204.05 159.19 76.4 61.598 152.56 124.16 226.82 188.31 51.72 44.673 130.82 121.63 180.59 168.63 63.14 59.626 124.14 107.24 184.97 169.28 3.66 3.735 9.6 3.728 13.25-0.015 3.65-3.744 3.65-9.815-0.02-13.55-61-62.222-122.16-109.99-185.48-169.79-49.94-47.159-129.32-124.37-181.21-169.19-74.42-64.291-150.74-126.99-227.32-188.72-86.05-69.372-200.85-161.7-225.61-172.18-10.27-4.346-15.7 1.417-17.08 5.173-0.77 2.096-1.2 6.106 0.72 11.66 3.49 10.14 16.28 32.491 35.66 62.933 93.96 147.58 344.32 493.2 390.09 556.62 19.1 26.457 140.7 204.79 173.69 244.87 3.33 4.04 9.25 4.57 13.21 1.16 3.95-3.4 4.46-9.45 1.13-13.5-32.86-39.918-153.93-217.56-172.94-243.91-45.7-63.322-295.67-408.36-389.47-555.7-10.5-16.502-19.03-30.488-25.05-41.273z"/> </g> <path d="m1203.4 1307c-4.23 0.2-7.61 3.7-7.61 7.99 0 3.74 1.81 5.88 3.84 7.2 1.56 1.02 3.78 1.82 6.75 1.15 1.95-0.45 6.6-3.25 11.76-7.82 9.4-8.34 22.28-22.24 24.18-25.66 16.23-29.21 34.06-59.29 26.92-94.06-0.89-4.33-5.13-7.12-9.45-6.23-4.33 0.89-7.12 5.13-6.23 9.45 6.35 30.85-10.82 57.15-25.22 83.07-1.93 3.46-17.6 19.45-24.94 24.91zm8.37 7.37 0.01 0.2v-0.01l-0.01-0.19zm-0.02-0.25v0.04-0.01-0.03z"/> <path d="m2148 1968.8c1.45 1.99 3.8 3.28 6.45 3.28 4.42 0 8-3.59 8-8 0-2.27-1.28-6.25-6.61-9.24-5.63-3.15-20.75-8.87-28.91-27.8-12.32-28.56-3.84-54.56-0.54-83.97 0.5-4.39-2.66-8.35-7.05-8.85-4.39-0.49-8.35 2.68-8.85 7.06-3.62 32.26-11.77 60.77 1.75 92.1 8.2 19.03 21.69 27.84 30.58 32.67 1.97 1.07 4.15 2.22 5.18 2.75z"/> <path d="m2168.3 2094.5c1.26 2.77 4.05 4.7 7.29 4.7 4.41 0 8-3.59 8-8 0-2.84-1.01-5.24-2.83-7.27-1.67-1.86-4.63-3.33-7.16-4.71-14.21-7.71-16.25-16.51-16.99-26.98-0.64-9.15-0.57-19.29-3.81-30.68-1.2-4.25-5.63-6.72-9.88-5.52-4.25 1.21-6.72 5.63-5.51 9.88 2.89 10.19 2.67 19.26 3.24 27.44 1.09 15.52 4.25 28.48 25.31 39.92 0.61 0.33 1.61 0.85 2.34 1.22z"/> <path d="m1610.6 2561.4c1.91-1.46 3.15-3.77 3.15-6.36 0-3.81-1.83-5.66-2.85-6.55-1.9-1.66-4.14-2.35-6.78-1.89-1.18 0.21-3.54 0.89-5.59 3.62-2.34 3.13-8.84 17.96-10.93 22.63-8.49 18.94-27.64 28.75-45.87 34.2-39.15 11.71-74.33 32.46-109.33 53.98-33.96 20.88-67.77 42.49-105.22 56.55-4.14 1.55-6.23 6.16-4.68 10.29 1.55 4.14 6.16 6.24 10.3 4.69 38.42-14.42 73.14-36.48 107.98-57.9 33.81-20.79 67.72-40.97 105.54-52.28 22.46-6.72 45.41-19.64 55.88-42.98 1.44-3.21 6.46-13.9 8.4-18zm-11.58-2.03c-0.8-1.25-1.27-2.74-1.27-4.33 0 1.94 0.54 3.33 1.27 4.33z"/> <path d="m978.26 2183.1c7.06-7.46 44.906-43.6 78.116-60.32 8.14-4.09 15.93-7.02 22.84-7.75 3.99-0.41 7.61-0.11 10.61 1.57 2.87 1.61 4.99 4.49 6.52 8.63 1.52 4.15 6.12 6.28 10.27 4.75 4.14-1.52 6.27-6.12 4.74-10.27-3.08-8.39-7.9-13.81-13.71-17.07-8.16-4.57-18.76-4.83-30.6-1.39-38.07 11.07-91.646 61.59-100.41 70.86-3.033 3.21-2.892 8.27 0.317 11.31 3.208 3.03 8.275 2.89 11.309-0.32z"/> <path d="m628.24 2343.6c-1.072 0.37-2.388 0.81-2.691 0.89-6.244 1.6-12.302 4.69-17.886 7.79-14.082 7.81-29.207 13.54-43.411 21.05-43.748 23.15-84.317 49.55-124.76 78.32-3.598 2.56-4.441 7.56-1.881 11.16 2.559 3.59 7.558 4.44 11.156 1.88 39.865-28.36 79.845-54.4 122.97-77.22 14.297-7.56 29.516-13.34 43.69-21.2 4.419-2.45 9.16-5.02 14.101-6.29 0.834-0.21 4.624-1.38 6.513-2.19 1.439-0.61 2.425-1.32 2.908-1.74 2.068-1.8 2.601-3.8 2.768-5.18 0.225-1.86-0.154-3.59-1.129-5.18-0.612-1-2.323-3.91-7.272-3.91-1.926 0-3.693 0.68-5.074 1.82zm4.27 14.14c0.252 0.03 0.519 0.04 0.804 0.04-0.271 0-0.539-0.01-0.804-0.04z"/> <path d="m488.22 3020.9c14.319 1.84 52.914-0.04 78.793-8.65 12.909-4.29 22.704-10.61 26.79-18.01 2.133-3.87 0.726-8.74-3.14-10.87s-8.737-0.73-10.87 3.14c-2.622 4.75-9.542 7.81-17.827 10.56-23.554 7.83-58.673 9.64-71.705 7.96-4.38-0.56-8.392 2.54-8.955 6.92s2.535 8.39 6.914 8.95z"/> </g> <defs> <linearGradient id="j" x2="1" gradientTransform="matrix(3315 3030.9 -3666 2740.7 110 30.59)" gradientUnits="userSpaceOnUse"> <stop stop-color="#e07dff" offset="0"/> <stop stop-color="#e883f7" offset=".24"/> <stop stop-color="#ff96df" offset=".48"/> <stop stop-color="#ffb45a" offset="1"/> </linearGradient> </defs> </svg>